<svg width="147" height="147" viewBox="0 0 147 147" fill="none" xmlns="http://www.w3.org/2000/svg">
<circle opacity="0.3" cx="73" cy="74" r="60" fill="#56CBB8"/>
<circle cx="73.5" cy="73.5" r="65.5" stroke="#FFA913" stroke-width="4"/>
<g clip-path="url(#clip0_1017_43629)">
<path d="M74 74.907H72V76.7442H74V74.907Z" fill="#787A7D"/>
<path d="M63 79.5C62.8 79.5 62.5 79.4081 62.3 79.3163L54.3 72.886C54.1 72.7023 54 72.4267 54 72.1512C54 71.8756 54.1 71.6 54.3 71.4163L62.3 64.986C62.6 64.7105 63 64.7105 63.4 64.8023C63.8 64.986 64 65.2616 64 65.6291V70.2221H62V67.65L56.5 72.1512L62 76.5605V75.8256C62 75.2744 62.4 74.907 63 74.907H69V76.7442H64V78.5814C64 78.9488 63.8 79.2244 63.4 79.4081C63.3 79.5 63.1 79.5 63 79.5Z" fill="#787A7D"/>
<path d="M64 107.058H62V82.2558H83V84.093H64V107.058Z" fill="#04352D"/>
<path d="M83 86.8488C82.9 86.8488 82.7 86.8488 82.6 86.757C82.2 86.5732 82 86.2977 82 85.9302V81.3372H84V83.9093L89.5 79.5L84 75.0907V75.8256C84 76.3767 83.6 76.7442 83 76.7442H77V74.907H82V73.0698C82 72.7023 82.2 72.4267 82.6 72.243C83 72.0593 83.4 72.1512 83.7 72.4267L91.7 78.857C91.9 79.0407 92 79.3163 92 79.5918C92 79.8674 91.9 80.143 91.7 80.3267L83.7 86.757C83.5 86.757 83.2 86.8488 83 86.8488Z" fill="#04352D"/>
<path d="M48 107.058H46V72.1512H45V70.314H48V107.058Z" fill="#04352D"/>
<path d="M56 85.0116H54V107.058H56V85.0116Z" fill="#04352D"/>
<path d="M44 86.8488H40V68.4767C40 61.6791 45.2 56.5349 52 56.5349H58C63.8 56.5349 68.4 60.0256 69.7 65.5372L67.7 65.9046C66.6 61.3116 62.8 58.3721 58 58.3721H52C46.2 58.3721 42 62.5977 42 68.4767V85.0116H44V86.8488Z" fill="#04352D"/>
<path d="M55 54.6977C50.8 54.6977 48 51.7581 48 47.3488C48 42.9395 50.8 40 55 40C59.2 40 62 42.9395 62 47.3488C62 51.7581 59.2 54.6977 55 54.6977ZM55 41.8372C51.3 41.8372 50 44.7767 50 47.3488C50 49.9209 51.3 52.8605 55 52.8605C58.7 52.8605 60 49.9209 60 47.3488C60 44.7767 58.7 41.8372 55 41.8372Z" fill="#04352D"/>
<path d="M84 89.6046H82V107.058H84V89.6046Z" fill="#787A7D"/>
<path d="M100 107.058H98V71.2326C98 70.6814 98.4 70.314 99 70.314H101V72.1512H100V107.058Z" fill="#787A7D"/>
<path d="M92 85.0116H90V107.058H92V85.0116Z" fill="#787A7D"/>
<path d="M105 86.8488H102V85.0116H104V68.4767C104 62.5977 99.8 58.3721 94 58.3721H88C82.2 58.3721 78 62.5977 78 68.4767C78 69.0279 77.6 69.3953 77 69.3953H63V67.5581H76C76.4 61.2198 81.4 56.5349 88 56.5349H94C100.8 56.5349 106 61.6791 106 68.4767V85.9302C106 86.4814 105.6 86.8488 105 86.8488Z" fill="#787A7D"/>
<path d="M91 54.6977C86.8 54.6977 84 51.7581 84 47.3488C84 42.9395 86.8 40 91 40C95.2 40 98 42.9395 98 47.3488C98 51.7581 95.2 54.6977 91 54.6977ZM91 41.8372C87.3 41.8372 86 44.7767 86 47.3488C86 49.9209 87.3 52.8605 91 52.8605C94.7 52.8605 96 49.9209 96 47.3488C96 44.7767 94.7 41.8372 91 41.8372Z" fill="#787A7D"/>
</g>
<defs>
<clipPath id="clip0_1017_43629">
<rect width="66" height="67.0581" fill="white" transform="translate(40 40)"/>
</clipPath>
</defs>
</svg>
