<svg width="147" height="147" viewBox="0 0 147 147" fill="none" xmlns="http://www.w3.org/2000/svg">
<circle opacity="0.3" cx="73" cy="74" r="60" fill="#56CBB8"/>
<circle cx="73.5" cy="73.5" r="65.5" stroke="#FFA913" stroke-width="4"/>
<path d="M57.8249 78.8627L55.9268 103.08L57.7476 103.223L59.6458 79.0054L57.8249 78.8627Z" fill="#04352D"/>
<path d="M66.3824 55.3004C66.1997 55.3004 66.1084 55.3004 65.9257 55.3004C64.3732 55.2091 63.0946 54.5698 62.0901 53.4739C60.9942 52.1953 60.4462 50.4601 60.6289 48.451C60.9942 44.6153 63.5513 42.1495 66.9303 42.3321C68.4829 42.4235 69.7614 43.0627 70.766 44.1586C71.8619 45.4372 72.4099 47.1724 72.2272 49.1816C71.9532 52.8346 69.5788 55.3004 66.3824 55.3004ZM66.4737 44.1586C63.8253 44.1586 62.7293 46.5331 62.5467 48.5423C62.4554 50.0948 62.8207 51.3734 63.5513 52.2866C64.1906 53.0172 65.0125 53.3826 66.1084 53.4739C69.0308 53.6565 70.2181 51.1907 70.4007 49.0902C70.492 47.5377 70.1267 46.2591 69.3961 45.3459C68.7568 44.6153 67.9349 44.25 66.839 44.1586C66.7477 44.1586 66.565 44.1586 66.4737 44.1586Z" fill="#04352D"/>
<path d="M81.1768 94.0226L79.3503 93.7486L81.1768 81.6023C81.3594 80.5977 81.1768 79.6844 80.7202 78.8625C80.1722 78.1319 79.4416 77.5839 78.5283 77.4013L70.035 75.6661C69.5784 75.5748 69.3044 75.1181 69.3044 74.6615L70.7656 61.7846C70.857 61.1453 70.6743 60.506 70.2177 60.0494C69.8524 59.5927 69.2131 59.3188 68.6652 59.2274L60.5372 58.5882C58.3453 58.4055 56.1535 59.4101 54.875 61.2366L49.0301 69.7299L47.2949 77.5839C47.2036 77.8579 47.2949 78.1319 47.4776 78.4059C47.6602 78.5885 47.9342 78.7712 48.2082 78.7712C48.5735 78.7712 48.9388 78.4972 49.0301 78.1319L51.3132 70.5518C51.3132 70.4605 51.4046 70.2779 51.4959 70.1865L58.0714 63.0631C58.3453 62.7891 58.802 62.6978 59.1673 62.8805C59.5326 63.0631 59.7152 63.4284 59.7152 63.7937L58.528 71.9217C57.7974 77.2186 58.528 79.5931 64.7381 80.5064L76.5192 82.3329C76.9758 82.4242 77.3411 82.7895 77.2498 83.3375L76.3365 94.2052L74.51 94.0226L75.3319 84.0681L64.3728 82.4242C56.7928 81.3283 55.7882 77.6753 56.6101 71.8304L57.3408 66.6248L52.9571 71.3738L50.7653 78.7712C50.4 79.8671 49.3954 80.689 48.2082 80.689C47.3862 80.689 46.5643 80.3237 46.0164 79.6844C45.4684 79.0451 45.2857 78.1319 45.4684 77.3099L47.1123 69.3646C47.1123 69.2733 47.2036 69.182 47.2949 68.9993L53.2311 60.3233C54.875 57.9489 57.7061 56.6703 60.5372 56.853L68.6652 57.4922C69.7611 57.5836 70.7656 58.1315 71.4963 58.9535C72.2269 59.8667 72.5922 60.9626 72.4095 62.0585L71.0396 74.1135L78.711 75.6661C80.0809 75.9401 81.2681 76.762 82.09 77.9492C82.912 79.1365 83.0946 80.5977 82.8207 81.9676L81.1768 94.0226Z" fill="#04352D"/>
<path d="M64.2497 84.5835L61.6968 103.222L63.5063 103.47L66.0592 84.8314L64.2497 84.5835Z" fill="#04352D"/>
<path d="M79.4417 69.9126C79.3504 69.9126 79.259 69.9126 79.1677 69.8212L73.3229 67.7207L73.9621 65.9856L79.533 67.9947L86.2911 65.3463C86.6564 65.1636 86.9304 64.6157 86.7478 64.159C86.5651 63.7024 86.0172 63.4284 85.5605 63.5198L79.8983 65.3463C79.6243 65.4376 79.3504 65.4376 79.1677 65.2549L70.1265 59.6841L71.131 58.1315L79.807 63.5198L85.1039 61.7846C86.5651 61.3279 88.1176 62.0585 88.5743 63.5198C89.0309 64.8896 88.3916 66.3509 87.1131 66.9901L79.9897 69.7299C79.7157 69.9126 79.6243 69.9126 79.4417 69.9126Z" fill="#04352D"/>
<path d="M52.6564 109H50.8423V103.437C50.8423 102.88 51.2051 102.509 51.7493 102.509H68.9833V94.1646C68.9833 93.6083 69.3461 93.2374 69.8904 93.2374H87.1243V84.8925C87.1243 84.3362 87.4872 83.9653 88.0314 83.9653H94.3807V85.8197H88.9384V94.1646C88.9384 94.7209 88.5756 95.0918 88.0314 95.0918H70.7974V103.437C70.7974 103.993 70.4346 104.364 69.8904 104.364H52.6564V109Z" fill="#FFA913"/>
<path d="M93.18 44H91V67H93.18V44Z" fill="#04352D"/>
<path d="M98.7343 51.3115H96.5574V54.5769H98.7343V51.3115Z" fill="#04352D"/>
<path d="M98.7343 56.7538H96.5574V58.9308H98.7343V56.7538Z" fill="#04352D"/>
<path d="M96.7111 61.1077H98.4728V66.4139H101.115C101.468 66.4139 101.732 66.5908 101.908 66.9445C102.084 67.2983 101.996 67.652 101.732 67.9174L95.566 74.9924C95.2137 75.3461 94.5971 75.3461 94.2447 74.9924L88.0787 67.9174C87.8145 67.652 87.8144 67.2983 87.9025 66.9445C88.0787 66.5908 88.343 66.4139 88.6953 66.4139H93.9805V68.1827H90.6332L94.8613 73.0467L99.0894 68.1827H97.592C97.0635 68.1827 96.7111 67.8289 96.7111 67.2983V61.1077Z" fill="#04352D"/>
<path d="M99.1769 44H97V49.4423H99.1769V44Z" fill="#04352D"/>
</svg>
