<svg width="147" height="147" viewBox="0 0 147 147" fill="none" xmlns="http://www.w3.org/2000/svg">
<circle opacity="0.3" cx="73" cy="74" r="60" fill="#56CBB8"/>
<circle cx="73.5" cy="73.5" r="65.5" stroke="#FFA913" stroke-width="4"/>
<path d="M54.6261 96.6669C54.3162 96.6669 54.0063 96.641 53.6964 96.5979C49.6863 96.0117 47.2539 91.7962 47.1506 91.6152C46.9346 91.2358 47.0567 90.7703 47.4324 90.5203C47.6108 90.3996 51.8369 87.6151 55.7061 88.7272C57.791 89.322 59.3312 90.891 60.2797 93.391C60.4018 93.71 60.3079 94.0548 60.0449 94.2962C58.2794 95.8652 56.4574 96.6669 54.6261 96.6669ZM49.2543 91.4858C50.0244 92.5548 51.743 94.5634 53.9875 94.891C55.3774 95.0979 56.8237 94.5979 58.2794 93.4255C57.5374 91.779 56.4856 90.7445 55.1426 90.3652C52.9639 89.7445 50.4658 90.8393 49.2543 91.4858Z" fill="#FFA913"/>
<path d="M45.4977 86.2789C44.8779 86.2789 44.2768 86.1926 43.6852 86.0202C39.8254 84.8737 38.1255 80.365 38.0504 80.1668C37.9001 79.7616 38.0974 79.3219 38.5106 79.1237C38.7078 79.0288 43.3471 76.8737 46.9909 78.5202C48.9443 79.3995 50.2028 81.1668 50.7193 83.7702C50.785 84.0978 50.6348 84.434 50.3437 84.6323C48.672 85.7271 47.0473 86.2789 45.4977 86.2789ZM40.1634 80.3392C40.7457 81.5116 42.1075 83.7357 44.2675 84.3737C45.6104 84.7702 47.113 84.4857 48.7565 83.5375C48.3057 81.8047 47.4323 80.6409 46.1645 80.0633C44.1172 79.1409 41.4594 79.8737 40.1634 80.3392Z" fill="#FFA913"/>
<path d="M45.6478 74.8995C44.2297 74.8995 42.99 74.546 41.9382 73.8478C38.6512 71.6581 38.5573 66.8909 38.5573 66.684C38.5479 66.2615 38.886 65.8908 39.3462 65.8219C39.5622 65.7874 44.6993 65.0546 47.6106 67.6495C49.1789 69.046 49.7706 71.0805 49.3949 73.7012C49.348 74.0288 49.0944 74.3047 48.7469 74.4081C47.6387 74.7357 46.6057 74.8995 45.6478 74.8995ZM40.5013 67.4512C40.661 68.7271 41.2057 71.2357 43.0464 72.4512C44.1921 73.2098 45.7135 73.365 47.5918 72.9254C47.742 71.1495 47.31 69.796 46.3052 68.8909C44.6805 67.4426 41.9006 67.3822 40.5013 67.4512Z" fill="#FFA913"/>
<path d="M47.8079 62.3909C45.3943 62.3909 43.5255 61.7099 42.2576 60.3564C39.6093 57.5374 40.7175 52.8736 40.7738 52.6754C40.8677 52.2616 41.2809 51.9685 41.7505 52.0029C41.9665 52.0202 47.1505 52.3909 49.3293 55.5374C50.5032 57.2271 50.569 59.3392 49.5359 61.8047C49.4044 62.115 49.0945 62.3306 48.7283 62.3564C48.4183 62.3823 48.1084 62.3909 47.8079 62.3909ZM42.4642 53.8305C42.3046 55.1064 42.2013 57.6581 43.6851 59.2443C44.6055 60.2271 46.0329 60.7012 47.9957 60.6668C48.5874 58.9685 48.5123 57.5633 47.7516 56.4685C46.5213 54.7012 43.8448 54.0547 42.4642 53.8305Z" fill="#FFA913"/>
<path d="M91.3832 96.6668C89.5425 96.6668 87.73 95.8651 85.9644 94.2875C85.7015 94.0547 85.617 93.7013 85.7297 93.3823C86.6782 90.8823 88.2184 89.3133 90.3032 88.7185C94.1819 87.6064 98.3986 90.3909 98.577 90.5116C98.9527 90.7616 99.0747 91.2271 98.8587 91.6064C98.7554 91.7875 96.3231 96.003 92.313 96.5892C92.0031 96.6409 91.6932 96.6668 91.3832 96.6668ZM87.7206 93.434C89.1763 94.6064 90.6131 95.0978 92.0125 94.8995C94.257 94.572 95.9756 92.5633 96.7457 91.4944C95.5342 90.8478 93.0267 89.7444 90.8573 90.3737C89.5144 90.753 88.4625 91.7875 87.7206 93.434Z" fill="#FFA913"/>
<path d="M100.502 86.2789C98.9525 86.2789 97.3278 85.7271 95.6562 84.6323C95.3557 84.434 95.2148 84.1064 95.2805 83.7702C95.7971 81.1668 97.0555 79.3995 99.0089 78.5202C102.653 76.8737 107.292 79.0288 107.489 79.1237C107.902 79.3219 108.1 79.7616 107.949 80.1668C107.874 80.3564 106.184 84.8737 102.324 86.0202C101.732 86.1926 101.122 86.2789 100.502 86.2789ZM97.2527 83.5375C98.8868 84.4857 100.399 84.7702 101.742 84.3737C103.902 83.7357 105.264 81.5116 105.846 80.3392C104.54 79.8737 101.873 79.1409 99.8353 80.0633C98.5675 80.6409 97.7035 81.8047 97.2527 83.5375Z" fill="#FFA913"/>
<path d="M100.352 74.8995C99.3941 74.8995 98.361 74.7357 97.2529 74.4168C96.9054 74.3133 96.6518 74.0374 96.6048 73.7099C96.2198 71.0892 96.8208 69.0547 98.3892 67.6581C101.301 65.0633 106.438 65.796 106.654 65.8305C107.114 65.8995 107.442 66.2616 107.442 66.6926C107.442 66.8909 107.349 71.6667 104.062 73.8564C103.01 74.5461 101.761 74.8995 100.352 74.8995ZM98.408 72.9254C100.286 73.365 101.817 73.2099 102.953 72.4512C104.794 71.2271 105.339 68.7271 105.498 67.4512C104.099 67.3822 101.319 67.4426 99.6946 68.8995C98.6803 69.796 98.2483 71.1581 98.408 72.9254Z" fill="#FFA913"/>
<path d="M98.192 62.3909C97.8915 62.3909 97.5816 62.3822 97.2623 62.3564C96.896 62.3305 96.5861 62.115 96.4546 61.8046C95.4216 59.3305 95.4967 57.227 96.6612 55.5374C98.84 52.3908 104.024 52.0201 104.24 52.0029C104.71 51.9684 105.123 52.2529 105.226 52.6753C105.273 52.8736 106.381 57.5374 103.733 60.365C102.474 61.7098 100.615 62.3909 98.192 62.3909ZM98.0136 60.6667C99.9764 60.7012 101.404 60.2184 102.324 59.2357C103.808 57.6495 103.714 55.1063 103.545 53.8305C102.165 54.0546 99.4786 54.7012 98.2578 56.4684C97.4971 57.5633 97.4126 58.9684 98.0136 60.6667Z" fill="#FFA913"/>
<path d="M73.0705 78.0375C72.9484 78.0375 72.8263 78.0116 72.7136 77.9685L53.3862 70.5719C53.0387 70.434 52.804 70.1236 52.804 69.7788C52.804 69.434 53.0293 69.115 53.3862 68.9857L72.7136 61.5891C72.9484 61.5029 73.2019 61.5029 73.4367 61.5891L92.7641 68.9857C93.1116 69.1236 93.3463 69.434 93.3463 69.7788C93.3463 70.1236 93.1209 70.4426 92.7641 70.5719L73.4367 77.9685C73.3146 78.0202 73.1925 78.0375 73.0705 78.0375ZM56.1754 69.7874L73.0611 76.2444L89.9467 69.7874L73.0611 63.3305L56.1754 69.7874Z" fill="#04352D"/>
<path d="M73.0327 84.6926C64.4115 84.6926 62.6365 81.8737 62.4674 81.5547C62.4017 81.434 62.3735 81.3047 62.3735 81.1668V73.4771C62.3735 73.0029 62.7961 72.615 63.3127 72.615C63.8292 72.615 64.2518 73.0029 64.2518 73.4771V80.8995C64.6838 81.3478 66.6654 82.9685 73.0421 82.9685C79.6254 82.9685 81.6258 80.8392 82.0296 80.2788L81.9075 73.4857C81.8981 73.0116 82.3113 72.615 82.8279 72.6064C83.3444 72.5633 83.7764 72.9771 83.7858 73.4512L83.9173 80.4771C83.9173 80.5978 83.8985 80.7185 83.8421 80.8306C83.7576 81.003 81.9357 84.6926 73.0327 84.6926Z" fill="#04352D"/>
<path d="M87.5709 78.0374C87.0543 78.0374 86.6317 77.6494 86.6317 77.1753V72.5632L80.4053 70.0201C79.9357 69.8304 79.7197 69.3132 79.9263 68.8822C80.1423 68.4511 80.6964 68.2528 81.166 68.4425L87.9465 71.2184C88.2846 71.3563 88.5006 71.6667 88.5006 72.0029V77.1753C88.51 77.6581 88.0874 78.0374 87.5709 78.0374Z" fill="#04352D"/>
</svg>
