<svg width="28" height="28" viewBox="0 0 28 28" fill="none" xmlns="http://www.w3.org/2000/svg">
    <g clip-path="url(#clip0_1222_46498)">
        <path d="M28 11.2C28 11.0459 27.8843 10.8917 27.7107 10.789L25.7438 9.86422C25.8017 9.71009 25.8595 9.55596 25.8595 9.40183C25.8595 8.78532 25.4545 8.32294 24.876 8.11743V5.75413L26.9008 5.08624C27.0744 4.98349 27.1901 4.77798 27.1901 4.62385C27.1901 4.41835 27.0744 4.26422 26.843 4.16147L14.6364 0.0513761C14.5785 0 14.5207 0 14.405 0C14.3471 0 14.2314 0 14.1736 0.0513761L1.96694 4.16147C1.79339 4.21284 1.67769 4.41835 1.67769 4.62385C1.67769 4.82936 1.79339 4.98349 2.02479 5.08624L7.40496 6.8844V9.76147L1.27273 12.844C1.21488 12.844 1.15702 12.8954 1.15702 12.8954C0.636364 13.255 0 13.9743 0 14.8477C0 15.2073 0.173554 15.7211 0.694215 16.1835C0.289256 16.5945 0 17.1596 0 17.8275C0 18.1872 0.173554 18.7523 0.752066 19.2147C0.347107 19.5743 0 20.1394 0 20.8073C0 21.2697 0.231405 21.8862 1.09917 22.4514C1.15702 22.5028 1.21488 22.5028 1.27273 22.5028L12.7273 27.9486C12.7851 28 12.9008 28 12.9587 28C13.0744 28 13.1322 28 13.2479 27.9486L26.843 21.0642C27.4793 20.756 27.8843 20.1908 27.8843 19.6257L27.9421 17.5706C27.9421 17.4165 27.8843 17.3138 27.7686 17.211C27.8264 17.0569 27.8843 16.8514 27.8843 16.6972L27.9421 14.6422C27.9421 14.4881 27.8843 14.3853 27.7686 14.2826C27.8264 14.1284 27.8843 13.9229 27.8843 13.7688L28 11.7651C28 11.6624 28 11.611 27.9421 11.5083C28 11.3541 28 11.3028 28 11.2ZM1.79339 18.7009L1.73554 18.6495C1.33058 18.3927 1.09917 18.1358 1.09917 17.7761C1.09917 17.3651 1.33058 17.0055 1.61983 16.7486L12.7273 22.0404C12.7851 22.0917 12.9008 22.0917 12.9587 22.0917C13.0744 22.0917 13.1322 22.0917 13.2479 22.0404L26.843 15.156L26.7851 16.6459C26.7851 16.9028 26.6116 17.1596 26.2645 17.3138L12.9587 24.044L1.79339 18.7009ZM26.843 13.6147C26.843 13.8716 26.6694 14.1284 26.3223 14.2826L12.9587 21.0642L1.79339 15.7725L1.73554 15.7211C1.33058 15.4642 1.09917 15.2073 1.09917 14.8477C1.09917 14.4881 1.33058 14.0771 1.61983 13.8202L12.7851 18.9578C12.843 19.0092 12.9587 19.0092 13.0165 19.0092C13.1322 19.0092 13.1901 19.0092 13.3058 18.9578L23.8347 13.6147H25.7438C25.9174 13.6147 26.0331 13.5633 26.1488 13.4606C26.2645 13.3578 26.2645 13.2037 26.2645 13.0495L26.1488 12.433L26.9587 12.022L26.843 13.6147ZM21.5207 6.83303L23.7769 6.06239V8.01468C23.4298 8.11743 23.1405 8.32294 22.9669 8.57982L21.5207 7.91193V6.83303ZM25.0496 12.6385H23.6612H23.4876L23.8926 10.7376C23.8926 10.7376 23.8926 10.7376 23.9504 10.7376C24.0083 10.7376 24.0083 10.7376 24.0661 10.7376H24.124C24.1818 10.7376 24.2397 10.7376 24.2975 10.7376C24.3554 10.7376 24.4132 10.7376 24.4711 10.7376H24.5289C24.5868 10.7376 24.5868 10.7376 24.6446 10.7376H24.7025L25.0496 12.2789V12.3303V12.6385ZM24.6446 9.71009C24.5868 9.71009 24.5868 9.71009 24.6446 9.71009C24.5868 9.71009 24.5868 9.71009 24.6446 9.71009C24.5868 9.76147 24.5289 9.76147 24.5289 9.76147C24.5289 9.76147 24.5289 9.76147 24.4711 9.76147C24.4711 9.76147 24.4711 9.76147 24.4132 9.76147C24.4132 9.76147 24.4132 9.76147 24.3554 9.76147C24.3554 9.76147 24.3554 9.76147 24.2975 9.76147C24.2975 9.76147 24.2975 9.76147 24.2397 9.76147H24.1818H24.124C24.124 9.76147 24.124 9.76147 24.0661 9.76147C24.0661 9.76147 24.0661 9.76147 24.0083 9.76147C24.0083 9.76147 24.0083 9.76147 23.9504 9.76147C23.9504 9.76147 23.9504 9.76147 23.8926 9.76147L23.7769 9.65872C23.719 9.55596 23.6612 9.45321 23.6612 9.35046V9.29908V9.24771C23.719 9.0422 23.9504 8.93945 24.124 8.93945C24.4132 8.93945 24.6446 9.14495 24.6446 9.40183C24.7603 9.50459 24.7025 9.60734 24.6446 9.71009ZM25.8595 11.4569L25.7438 10.9431L26.3223 11.2L25.8595 11.4569ZM14.405 0.976147L25.1653 4.62385L24.0661 4.98349L14.5785 3.59633C14.2893 3.54495 14 3.75046 13.9421 4.00734C13.8843 4.26422 14.1157 4.5211 14.405 4.57248L22.0992 5.65138L20.8264 6.11376L18.9174 6.78165L14.405 8.22018L8.04132 6.06239L3.70248 4.62385L14.405 0.976147ZM14.2314 9.19633C14.2893 9.19633 14.2893 9.19633 14.2893 9.19633H14.3471H14.405H14.4628L19.0331 7.65505L20.2479 7.24404V11.1486C20.2479 11.2514 19.843 11.7651 18.6281 12.2789C17.876 12.5872 16.3719 13.1009 14.2893 13.1009C12.2066 13.1009 10.6446 12.5872 9.95041 12.2789C8.73554 11.7651 8.33058 11.3028 8.33058 11.1486V10.0697V7.24404L14.2314 9.19633ZM7.34711 10.8404V11.1486V11.2C7.46281 12.1248 8.96694 12.844 9.60331 13.1009C10.9917 13.6661 12.7273 13.9743 14.405 13.9743C16.0826 13.9743 17.8182 13.6661 19.2066 13.1009C19.843 12.844 21.3471 12.1248 21.4628 11.2V11.1486V8.99083L22.6198 9.50459C22.6198 9.71009 22.7355 9.9156 22.8512 10.1211C22.8512 10.1211 22.8512 10.1211 22.8512 10.1725L22.2149 13.0495C22.2149 13.1523 22.2149 13.2037 22.2149 13.3064L12.9587 17.9817L2.66116 13.2037L7.34711 10.8404ZM26.843 19.5229C26.843 19.7798 26.6694 20.0367 26.3223 20.1908L12.9587 26.9725L1.73554 21.6294C1.67769 21.6294 1.67769 21.578 1.61983 21.578C1.27273 21.3211 1.04132 21.0642 1.04132 20.756C1.04132 20.345 1.27273 19.9339 1.61983 19.6771L12.7273 24.9688C12.7851 25.0202 12.9008 25.0202 12.9587 25.0202C13.0744 25.0202 13.1322 25.0202 13.2479 24.9688L26.843 18.0844V19.5229Z" fill="#00715E"/>
    </g>
    <defs>
        <clipPath id="clip0_1222_46498">
            <rect width="28" height="28" fill="white"/>
        </clipPath>
    </defs>
</svg>
