<svg width="30" height="20" viewBox="0 0 30 20" fill="none" xmlns="http://www.w3.org/2000/svg">
<path d="M6.12518 12.0833H2.91687V2.08332H6.58351C7.45851 1.29166 8.87517 0.5 10.4168 0.5H14.9168C15.8751 0.5 16.4585 0.791665 16.7918 1.41666L16.0418 1.79166C15.9168 1.58333 15.7085 1.33333 14.9168 1.33333H10.4168C8.66684 1.33333 7.33351 2.54165 7.04184 2.79165L6.91685 2.91665H3.7502V11.2499H6.16685L6.12518 12.0833Z" fill="#00715E"/>
<path d="M16.6256 18.3748C16.5839 18.3748 16.5423 18.3748 16.5006 18.3748C16.0423 18.3332 15.6256 18.1665 15.3756 17.8748L16.0006 17.3332C16.0839 17.4582 16.3339 17.5415 16.5839 17.5415C16.8756 17.5415 17.1256 17.4999 17.2923 17.3332C17.5006 17.1665 17.6256 16.9165 17.6673 16.6665C17.6673 16.5415 17.6673 16.4165 17.5423 16.2915L17.3756 16.1249L18.0006 15.5415L19.0839 16.7082C19.3339 16.9582 19.7923 16.9165 20.1672 16.6249C20.5006 16.3332 20.6256 15.8332 20.4172 15.5832L16.5006 11.0416L17.0839 10.4999L20.8756 14.8332C21.0839 15.0832 21.5839 15.0415 21.9589 14.7082C22.3339 14.4165 22.4172 13.9165 22.2089 13.6665L17.8339 8.83324L18.4589 8.29157L22.6672 13.0415C22.7922 13.2082 23.0006 13.2082 23.1256 13.2082C23.3339 13.2082 23.5839 13.0832 23.7506 12.9582C23.9172 12.7915 24.0422 12.5832 24.0839 12.3749C24.0839 12.2499 24.1256 12.0832 24.0006 11.9166L19.4173 6.74992L20.0422 6.20825L24.6256 11.3749C24.8756 11.6666 25.0006 12.0832 24.9172 12.5415C24.8339 12.9582 24.6256 13.3332 24.2922 13.6249C23.9589 13.9165 23.5422 14.0832 23.1672 14.0832H23.1256C23.1256 14.5415 22.9172 15.0415 22.5006 15.4165C22.1672 15.7082 21.7506 15.8749 21.3339 15.8749C21.3339 16.3749 21.1256 16.8749 20.7089 17.2915C20.0006 17.9165 19.0006 17.9165 18.4589 17.3332L18.3339 17.1665C18.2089 17.4582 18.0423 17.7082 17.7923 17.9165C17.5006 18.2082 17.0839 18.3748 16.6256 18.3748Z" fill="#00715E"/>
<path d="M7.29225 14.3332C6.91725 14.3332 6.54225 14.2082 6.20892 13.9999C5.41726 13.4165 5.16726 12.3749 5.70892 11.6249L6.83392 9.99988C7.08392 9.62488 7.50058 9.41655 7.95891 9.33321C8.41724 9.29155 8.87557 9.41655 9.25057 9.66654C10.0422 10.2499 10.2922 11.2915 9.75057 12.0415L8.58391 13.6665C8.33391 14.0832 7.83391 14.3332 7.29225 14.3332ZM8.20891 10.1249C8.16724 10.1249 8.12558 10.1249 8.08391 10.1249C7.87558 10.1665 7.66725 10.2499 7.54225 10.4165L6.41725 12.0415C6.16725 12.4165 6.29225 12.9582 6.70892 13.2499C7.12558 13.5415 7.70891 13.4999 7.95891 13.1249L9.12557 11.4999C9.37557 11.1249 9.25057 10.5832 8.83391 10.2915C8.62557 10.2082 8.41724 10.1249 8.20891 10.1249Z" fill="#00715E"/>
<path d="M9.66754 15.9582C9.29255 15.9582 8.87588 15.8332 8.58422 15.6249C8.16755 15.3332 7.87589 14.8749 7.79256 14.3749C7.70922 13.8749 7.83422 13.3749 8.12589 12.9582L9.83421 10.5416C10.4592 9.66658 11.6259 9.49992 12.5009 10.0832C12.9175 10.3749 13.2092 10.8332 13.2925 11.3332C13.3759 11.8332 13.2509 12.3332 12.9592 12.7499L11.2509 15.1665C10.9592 15.5832 10.5009 15.8749 10.0009 15.9582C9.87588 15.9582 9.75088 15.9582 9.66754 15.9582ZM11.3759 10.5832C11.0425 10.5832 10.7092 10.7499 10.5009 11.0416L8.79255 13.4582C8.62588 13.7082 8.54255 13.9582 8.62588 14.2499C8.66755 14.5416 8.83422 14.7915 9.04255 14.9582C9.29255 15.1249 9.54254 15.2082 9.83421 15.1249C10.1259 15.0832 10.3759 14.9165 10.5425 14.7082L12.2509 12.2916C12.4175 12.0416 12.5009 11.7916 12.4175 11.4999C12.3759 11.2082 12.2092 10.9582 12.0009 10.7916C11.7925 10.6249 11.5842 10.5832 11.3759 10.5832Z" fill="#00715E"/>
<path d="M12.0838 17.6666C11.7088 17.6666 11.3338 17.5416 11.0004 17.3332C10.1254 16.7083 9.95878 15.5416 10.5421 14.6666L12.4171 12.0416C12.7088 11.625 13.1671 11.3333 13.6671 11.25C14.1671 11.1666 14.6671 11.2916 15.0837 11.5833C15.5004 11.8749 15.7921 12.3333 15.8754 12.8333C15.9587 13.3333 15.8337 13.8333 15.5421 14.2499L13.6671 16.8749C13.2504 17.4166 12.6671 17.6666 12.0838 17.6666ZM11.2088 15.1666C10.8754 15.6666 11.0004 16.3333 11.4588 16.6666C11.9588 16.9999 12.6254 16.8749 12.9588 16.4166L14.8337 13.7916C15.0004 13.5416 15.0837 13.2916 15.0004 12.9999C14.9587 12.7083 14.7921 12.4583 14.5838 12.2916C14.3754 12.1249 14.0838 12.0416 13.7921 12.1249C13.5004 12.1666 13.2504 12.3333 13.0838 12.5416L11.2088 15.1666Z" fill="#00715E"/>
<path d="M14.0004 19.1248C13.6671 19.1248 13.3754 19.0415 13.0838 18.8331C12.3754 18.3331 12.2088 17.4165 12.6671 16.7498L14.2504 14.4998C14.4588 14.1665 14.8338 13.9581 15.2088 13.9165C15.5838 13.8748 16.0004 13.9581 16.3338 14.2081C17.0421 14.7081 17.2088 15.6248 16.7504 16.2915L15.1671 18.5415C14.9171 18.9165 14.4588 19.1248 14.0004 19.1248ZM13.3754 17.2498C13.1671 17.5415 13.2921 17.9165 13.5838 18.1665C13.9171 18.3748 14.2921 18.3331 14.5004 18.0831L16.0838 15.8331C16.2921 15.5415 16.1671 15.1665 15.8754 14.9165C15.7088 14.7915 15.5421 14.7498 15.3338 14.7915C15.1671 14.8331 15.0421 14.9165 14.9171 15.0415L13.3754 17.2498Z" fill="#00715E"/>
<path d="M3.33331 12.8748H0V12.0415H2.91665V2.04158H0V1.20825H3.33331C3.58331 1.20825 3.74998 1.37492 3.74998 1.62492V12.4582C3.74998 12.7082 3.58331 12.8748 3.33331 12.8748Z" fill="#00715E"/>
<path d="M30 15.3748H26.6667C26.4167 15.3748 26.25 15.2082 26.25 14.9582V4.12492C26.25 3.87492 26.4167 3.70825 26.6667 3.70825H30V4.54158H27.0833V14.5415H30V15.3748Z" fill="#00715E"/>
<path d="M26.6664 14.5415H24.3747V13.7082H26.2497V5.37494H22.9998C22.7914 5.37494 22.6248 5.24994 22.5831 5.04161C22.2498 3.20828 20.5831 2.16662 17.9165 2.04163C16.8331 1.99996 15.6248 1.99996 15.4581 2.04163C14.7915 2.12496 14.2081 2.58329 14.0831 2.70829L10.1248 6.6666C10.7498 7.12493 11.9998 7.87492 12.9581 7.20826L15.7498 4.45828C15.7915 4.45828 15.7915 4.41661 15.7915 4.41661C15.8748 4.29161 16.0415 4.24995 16.2081 4.29161C16.3748 4.33328 16.4998 4.41661 16.5415 4.54161C16.6248 4.79161 17.3331 6.7916 19.6664 6.08327C19.7081 6.08327 19.7498 6.0416 19.7914 6.0416C20.0831 5.95827 20.2914 5.83327 20.4998 5.70827L20.9581 6.4166C20.7081 6.58326 20.4164 6.70826 20.0831 6.83326C20.0414 6.83326 19.9581 6.87493 19.9164 6.87493C18.0415 7.41659 16.7081 6.5416 16.0415 5.37494L13.5831 7.83326L13.5415 7.87492C11.7082 9.20825 9.37484 7.12493 9.2915 6.99993C9.20817 6.9166 9.1665 6.83326 9.1665 6.70826C9.1665 6.58326 9.20817 6.49993 9.2915 6.4166L13.4998 2.12496C13.4998 2.12496 14.2915 1.37496 15.3331 1.24996C15.6665 1.2083 17.5831 1.24996 17.9581 1.24996C21.8331 1.41663 22.9998 3.29162 23.3748 4.58328H26.7081C26.9581 4.58328 27.1247 4.74994 27.1247 4.99994V14.1665C27.0831 14.3749 26.9164 14.5415 26.6664 14.5415Z" fill="#00715E"/>
</svg>
