<svg width="147" height="147" viewBox="0 0 147 147" fill="none" xmlns="http://www.w3.org/2000/svg">
<circle opacity="0.3" cx="73" cy="74" r="60" fill="#56CBB8"/>
<circle cx="73.5" cy="73.5" r="65.5" stroke="#FFA913" stroke-width="4"/>
<g clip-path="url(#clip0_1082_34596)">
<path d="M52.7 66.8H45V42.8H53.8C55.9 40.9 59.3 39 63 39H73.8C76.1 39 77.5 39.7 78.3 41.2L76.5 42.1C76.2 41.6 75.7 41 73.8 41H63C58.8 41 55.6 43.9 54.9 44.5L54.6 44.8H47V64.8H52.8L52.7 66.8Z" fill="#04352D"/>
<path d="M77.8999 81.9C77.7999 81.9 77.6999 81.9 77.5999 81.9C76.4999 81.8 75.4999 81.4 74.8999 80.7L76.3999 79.4C76.5999 79.7 77.1999 79.9 77.7999 79.9C78.4999 79.9 79.0999 79.8 79.4999 79.4C79.9999 79 80.2999 78.4 80.3999 77.8C80.3999 77.5 80.3999 77.2 80.0999 76.9L79.6999 76.5L81.1999 75.1L83.7999 77.9C84.3999 78.5 85.4999 78.4 86.3999 77.7C87.1999 77 87.4999 75.8 86.9999 75.2L77.5999 64.3L78.9999 63L88.0999 73.4C88.5999 74 89.7999 73.9 90.6999 73.1C91.5999 72.4 91.7999 71.2 91.2999 70.6L80.7999 59L82.2999 57.7L92.3999 69.1C92.6999 69.5 93.1999 69.5 93.4999 69.5C93.9999 69.5 94.5999 69.2 94.9999 68.9C95.3999 68.5 95.6999 68 95.7999 67.5C95.7999 67.2 95.8999 66.8 95.5999 66.4L84.5999 54L86.0999 52.7L97.0999 65.1C97.6999 65.8 97.9999 66.8 97.7999 67.9C97.5999 68.9 97.0999 69.8 96.2999 70.5C95.4999 71.2 94.4999 71.6 93.5999 71.6H93.4999C93.4999 72.7 92.9999 73.9 91.9999 74.8C91.1999 75.5 90.1999 75.9 89.1999 75.9C89.1999 77.1 88.6999 78.3 87.6999 79.3C85.9999 80.8 83.5999 80.8 82.2999 79.4L81.9999 79C81.6999 79.7 81.2999 80.3 80.6999 80.8C79.9999 81.5 78.9999 81.9 77.8999 81.9Z" fill="#04352D"/>
<path d="M55.4999 72.2C54.5999 72.2 53.6999 71.9 52.8999 71.4C50.9999 70 50.3999 67.5 51.6999 65.7L54.3999 61.8C54.9999 60.9 55.9999 60.4 57.0999 60.2C58.1999 60.1 59.2999 60.4 60.1999 61C62.0999 62.4 62.6999 64.9 61.3999 66.7L58.5999 70.6C57.9999 71.6 56.7999 72.2 55.4999 72.2ZM57.6999 62.1C57.5999 62.1 57.4999 62.1 57.3999 62.1C56.8999 62.2 56.3999 62.4 56.0999 62.8L53.3999 66.7C52.7999 67.6 53.0999 68.9 54.0999 69.6C55.0999 70.3 56.4999 70.2 57.0999 69.3L59.8999 65.4C60.4999 64.5 60.1999 63.2 59.1999 62.5C58.6999 62.3 58.1999 62.1 57.6999 62.1Z" fill="#FFA913"/>
<path d="M61.2 76.1C60.3 76.1 59.3 75.8 58.6 75.3C57.6 74.6 56.9 73.5 56.7 72.3C56.5 71.1 56.8 69.9 57.5 68.9L61.6 63.1C63.1 61 65.9 60.6 68 62C69 62.7 69.7 63.8 69.9 65C70.1 66.2 69.8 67.4 69.1 68.4L65 74.2C64.3 75.2 63.2 75.9 62 76.1C61.7 76.1 61.4 76.1 61.2 76.1ZM65.3 63.2C64.5 63.2 63.7 63.6 63.2 64.3L59.1 70.1C58.7 70.7 58.5 71.3 58.7 72C58.8 72.7 59.2 73.3 59.7 73.7C60.3 74.1 60.9 74.3 61.6 74.1C62.3 74 62.9 73.6 63.3 73.1L67.4 67.3C67.8 66.7 68 66.1 67.8 65.4C67.7 64.7 67.3 64.1 66.8 63.7C66.3 63.3 65.8 63.2 65.3 63.2Z" fill="#FFA913"/>
<path d="M66.9999 80.2C66.0999 80.2 65.1999 79.9 64.3999 79.4C62.2999 77.9 61.8999 75.1 63.2999 73L67.7999 66.7C68.4999 65.7 69.5999 65 70.7999 64.8C71.9999 64.6 73.1999 64.9 74.1999 65.6C75.1999 66.3 75.8999 67.4 76.0999 68.6C76.2999 69.8 75.9999 71 75.2999 72L70.7999 78.3C69.7999 79.6 68.3999 80.2 66.9999 80.2ZM64.8999 74.2C64.0999 75.4 64.3999 77 65.4999 77.8C66.6999 78.6 68.2999 78.3 69.0999 77.2L73.5999 70.9C73.9999 70.3 74.1999 69.7 73.9999 69C73.8999 68.3 73.4999 67.7 72.9999 67.3C72.4999 66.9 71.7999 66.7 71.0999 66.9C70.3999 67 69.7999 67.4 69.3999 67.9L64.8999 74.2Z" fill="#FFA913"/>
<path d="M71.6002 83.7C70.8002 83.7 70.1002 83.5 69.4002 83C67.7002 81.8 67.3002 79.6 68.4002 78L72.2002 72.6C72.7002 71.8 73.6002 71.3 74.5002 71.2C75.4002 71.1 76.4002 71.3 77.2002 71.9C78.9002 73.1 79.3002 75.3 78.2002 76.9L74.4002 82.3C73.8002 83.2 72.7002 83.7 71.6002 83.7ZM70.1002 79.2C69.6002 79.9 69.9002 80.8 70.6002 81.4C71.4002 81.9 72.3002 81.8 72.8002 81.2L76.6002 75.8C77.1002 75.1 76.8001 74.2 76.1002 73.6C75.7002 73.3 75.3002 73.2 74.8002 73.3C74.4002 73.4 74.1002 73.6 73.8002 73.9L70.1002 79.2Z" fill="#FFA913"/>
<path d="M46 68.7H38V66.7H45V42.7H38V40.7H46C46.6 40.7 47 41.1 47 41.7V67.7C47 68.3 46.6 68.7 46 68.7Z" fill="#04352D"/>
<path d="M110 74.7H102C101.4 74.7 101 74.3 101 73.7V47.7C101 47.1 101.4 46.7 102 46.7H110V48.7H103V72.7H110V74.7Z" fill="#FFA913"/>
<path d="M74 102.9H63.2999C63 102.9 62.8 102.8 62.6 102.6C62.4 102.4 62.2999 102.1 62.2999 101.9V101.6C62.2999 101.4 62.4 101.1 62.6 101C63.3 100.2 63.7 99.4 63.7 98.7C63.7 97.6 62.5999 96.7 61.2999 96.6H61.2C60.5 96.6 59.9 96.9 59.5 97.3C59.1 97.7 58.9 98.2 58.9 98.6C58.9 99.5 59.5 100.4 60 101C60.2 101.2 60.1999 101.4 60.2999 101.6V101.9C60.2999 102.2 60.2 102.4 60 102.6C59.7999 102.8 59.5999 102.9 59.2999 102.9H48.6C48.1 102.9 47.6 102.5 47.6 101.9V92.9C46.8 93.3 46 93.6 45.3 93.6C43.1 93.6 41.3 91.7 41.2 89.3V89.1C41.3 86.6 43 84.7 45.2 84.7C46 84.7 46.8 84.9 47.6 85.4L47.5 75.8H49.5V87C49.5 87.3 49.4 87.5 49.2 87.7C49 87.9 48.7 88 48.5 88H48.1C47.9 88 47.6 87.9 47.5 87.8C46.7 87.1 45.9 86.7 45.1 86.7C44 86.7 43.1 87.8 43.1 89.1V89.2C43.2 90.5 44.1 91.5 45.2 91.5C45.9 91.5 46.7 91.1 47.5 90.4C47.7 90.2 47.9 90.2 48.1 90.1H48.4C48.7 90.1 48.9 90.2 49.1 90.4C49.3 90.6 49.4 90.8 49.4 91.1V100.8H57.2999C56.9 100 56.7 99.3 56.7 98.5C56.7 97.5 57.0999 96.5 57.9 95.7C58.6999 94.9 59.9 94.4 61.1 94.4H61.2C63.6 94.5 65.5 96.3 65.5 98.5C65.5 99.3 65.2999 100 64.9 100.8H72.7999V91.1C72.7999 90.8 72.8999 90.6 73.0999 90.4C73.2999 90.2 73.5999 90.1 73.7999 90.1H74C74.2 90.1 74.5 90.2 74.5999 90.4C75.0999 90.9 76 91.5 76.9 91.6C78 91.7 78.9 90.6 79 89.3V89.2C79 87.9 78.0999 86.8 77 86.8C76.2999 86.8 75.5 87.1 74.5999 87.8C74.3999 87.9 74.2 88 74 88H73.5999C73.0999 88 72.5999 87.6 72.5999 87V84.4H74.5999V85.4C75.3999 85 76.2999 84.7 77.0999 84.8C79.2999 84.9 81 86.8 81 89.2V89.4C80.7999 91.8 79 93.7 76.7999 93.6C76.0999 93.6 75.2999 93.4 74.5999 93V101.9C74.5999 102.2 74.5 102.4 74.2999 102.6C74.5 102.8 74.2999 102.9 74 102.9Z" fill="#04352D"/>
<path d="M86.7 109.2C84.2 109.1 82.3 107.3 82.3 105.2C82.3 104.4 82.5 103.6 82.9 102.9H77.5V100.9H84.6C84.9 100.9 85.1 101 85.3 101.2C85.5 101.4 85.6 101.7 85.6 101.9V102.2C85.6 102.4 85.5 102.7 85.4 102.8C84.9 103.4 84.3 104.2 84.3 105.2C84.3 106.3 85.4 107.2 86.7 107.3H86.8C88.1 107.3 89.1 106.4 89.1 105.3C89.1 104.4 88.5 103.5 88 102.9C87.8 102.7 87.8 102.5 87.7 102.3V101.9C87.7 101.6 87.8 101.4 88 101.2C88.2 101 88.4 100.9 88.7 100.9H98.7V93.2C97.9 93.7 97.1 93.9 96.3 93.9C94.1 93.9 92.3 92 92.2 89.6V89.4C92.3 86.9 94 85 96.2 85C97 85 97.9 85.2 98.7 85.7V75.7H100.7L100.8 87.3C100.8 87.6 100.7 87.8 100.5 88C100.3 88.2 100 88.3 99.8 88.3H99.4C99.2 88.3 98.9 88.2 98.8 88.1C98.2 87.6 97.4 87 96.4 87C95.3 87 94.4 88.1 94.4 89.4V89.5C94.5 90.8 95.4 91.8 96.5 91.8C97.4 91.8 98.3 91.2 98.8 90.7C99 90.5 99.2 90.5 99.4 90.4H99.8C100.1 90.4 100.3 90.5 100.5 90.7C100.7 90.9 100.8 91.1 100.8 91.4V101.8C100.8 102.1 100.7 102.3 100.5 102.5C100.3 102.7 100.1 102.8 99.8 102.8H90.5C91 103.6 91.2 104.4 91.2 105.2C91.2 107.4 89.3 109.2 86.9 109.3L86.7 109.2Z" fill="#FFA913"/>
<path d="M102 72.7H96.5V70.7H101V50.7H93.2C92.7 50.7 92.3 50.4 92.2 49.9C91.4 45.5 87.4 43 81 42.7C78.4 42.6 75.5 42.6 75.1 42.7C73.5 42.9 72.1 44 71.8 44.3L62.3 53.8C63.8 54.9 66.8 56.7 69.1 55.1L75.8 48.5C75.9 48.5 75.9 48.4 75.9 48.4C76.1 48.1 76.5 48 76.9 48.1C77.3 48.2 77.6 48.4 77.7 48.7C77.9 49.3 79.6 54.1 85.2 52.4C85.3 52.4 85.4 52.3 85.5 52.3C86.2 52.1 86.7 51.8 87.2 51.5L88.3 53.2C87.7 53.6 87 53.9 86.2 54.2C86.1 54.2 85.9 54.3 85.8 54.3C81.3 55.6 78.1 53.5 76.5 50.7L70.6 56.6L70.5 56.7C66.1 59.9 60.5 54.9 60.3 54.6C60.1 54.4 60 54.2 60 53.9C60 53.6 60.1 53.4 60.3 53.2L70.4 42.9C70.4 42.9 72.3 41.1 74.8 40.8C75.6 40.7 80.2 40.8 81.1 40.8C90.4 41.2 93.2 45.7 94.1 48.8H102.1C102.7 48.8 103.1 49.2 103.1 49.8V71.8C103 72.3 102.6 72.7 102 72.7Z" fill="#FFA913"/>
</g>
<defs>
<clipPath id="clip0_1082_34596">
<rect width="70" height="70" fill="white" transform="translate(38 39)"/>
</clipPath>
</defs>
</svg>
