<svg width="24" height="24" viewBox="0 0 24 24" fill="none" xmlns="http://www.w3.org/2000/svg">
<path d="M21.3333 0H2.66667C1.19333 0 0 1.19333 0 2.66667V21.3333C0 22.8067 1.19333 24 2.66667 24H21.3333C22.8067 24 24 22.8067 24 21.3333V2.66667C24 1.19333 22.8067 0 21.3333 0ZM8 18.6667H4.636V9.33333H8V18.6667ZM6.25867 7.62267C5.23067 7.62267 4.544 6.93733 4.544 6.02267C4.544 5.108 5.22933 4.42267 6.372 4.42267C7.4 4.42267 8.08667 5.108 8.08667 6.02267C8.08667 6.93733 7.40133 7.62267 6.25867 7.62267ZM20 18.6667H16.744V13.5653C16.744 12.1547 15.876 11.8293 15.5507 11.8293C15.2253 11.8293 14.14 12.0467 14.14 13.5653C14.14 13.7827 14.14 18.6667 14.14 18.6667H10.776V9.33333H14.14V10.636C14.5733 9.876 15.4413 9.33333 17.0693 9.33333C18.6973 9.33333 20 10.636 20 13.5653V18.6667Z" fill="white"/>
</svg>
