<svg width="28" height="18" viewBox="0 0 28 18" fill="none" xmlns="http://www.w3.org/2000/svg">
<path d="M27.8328 5.62099L14.2143 0.5C14.1292 0.5 14.0866 0.5 14.0441 0.5C14.0015 0.5 13.9164 0.5 13.8739 0.541975L0.255347 5.66296C0.0851157 5.70494 0 5.83086 0 5.99877C0 6.16667 0.0851157 6.29259 0.255347 6.37654L6.34112 8.68518V14.1839C6.34112 14.2259 6.34112 14.2259 6.34112 14.2259C6.42624 14.9395 7.31995 15.779 8.72436 16.4086C10.2564 17.1222 12.129 17.5 14.0015 17.5C15.8741 17.5 17.7466 17.1222 19.2787 16.4086C20.7257 15.737 21.6194 14.9395 21.6619 14.2259C21.6619 14.2259 21.6619 14.184 21.6619 14.142V8.64321L24.5133 7.55185V10.2802C24.5133 10.3222 24.5133 10.3222 24.5133 10.3642C23.9601 10.5321 23.5771 11.0358 23.5771 11.6235C23.5771 11.8333 23.6196 12.0432 23.7047 12.2111L23.0664 15.3173C23.0238 15.4432 23.0664 15.5691 23.1515 15.6531C23.2366 15.737 23.3217 15.779 23.4494 15.779H26.3008C26.4284 15.779 26.5135 15.737 26.5987 15.6531C26.6838 15.5691 26.6838 15.4432 26.6838 15.3173L26.0454 12.1691C26.1305 12.0012 26.1731 11.8333 26.1731 11.6235C26.1731 11.0358 25.7901 10.5321 25.2368 10.3642C25.2368 10.3222 25.2368 10.3222 25.2368 10.2802V7.25802L27.6626 6.33457C27.8328 6.29259 27.918 6.12469 27.918 5.95679C28.0882 5.83086 27.9605 5.70494 27.8328 5.62099ZM20.9385 14.1C20.9385 14.1 20.9385 14.142 20.9385 14.1C20.9385 14.3938 20.3852 15.0235 18.9808 15.6531C18.1296 16.0309 16.3848 16.6605 14.0441 16.6605C11.7034 16.6605 9.91598 16.0309 9.10738 15.6531C7.70297 15.0235 7.19228 14.3519 7.14972 14.1V8.93704L8.42645 9.39877L13.8739 11.4556C13.9164 11.4556 14.0015 11.4975 14.0441 11.4975C14.0441 11.4975 14.0441 11.4975 14.0866 11.4975C14.0866 11.4975 14.0866 11.4975 14.1292 11.4975C14.1292 11.4975 14.1292 11.4975 14.1718 11.4975H14.2143L18.5127 9.86049L20.9385 8.93704V14.1ZM24.0452 15.0235L24.4708 12.8407C24.5133 12.8407 24.5559 12.8827 24.5984 12.8827C24.5984 12.8827 24.5984 12.8827 24.641 12.8827H24.6836H24.7261H24.7687H24.8112H24.8538H24.8963H24.9389C24.9389 12.8827 24.9389 12.8827 24.9815 12.8827H25.024H25.0666C25.1091 12.8827 25.1091 12.8827 25.1517 12.8407C25.1942 12.8407 25.2368 12.7988 25.2368 12.7988L25.6624 14.9815H24.0452V15.0235ZM25.3645 12.0012C25.2794 12.0852 25.1943 12.1272 25.1091 12.1691C25.1091 12.1691 25.1091 12.1691 25.0666 12.1691C25.0666 12.1691 25.0666 12.1691 25.024 12.1691C24.9389 12.1272 24.8538 12.0852 24.7687 12.0012C24.6836 11.9173 24.641 11.7914 24.641 11.6654C24.641 11.3716 24.8963 11.1198 25.1943 11.1198C25.4922 11.1198 25.7475 11.3716 25.7475 11.6654C25.4922 11.7494 25.4496 11.8753 25.3645 12.0012ZM24.8538 6.6284L14.0866 4.86543C13.8739 4.82346 13.6611 4.99136 13.6185 5.20123C13.576 5.41111 13.7462 5.62099 13.959 5.66296L23.4068 7.17407L21.1938 8.01358L19.4489 8.68518L14.0441 10.7L8.72436 8.68518L6.93693 8.01358L1.48952 5.99877L14.0441 1.29753L26.5561 5.99877L24.8538 6.6284Z" fill="#00715E"/>
</svg>
