<?xml version="1.0" standalone="no"?>
<!DOCTYPE svg PUBLIC "-//W3C//DTD SVG 20010904//EN"
 "http://www.w3.org/TR/2001/REC-SVG-20010904/DTD/svg10.dtd">
<svg version="1.0" xmlns="http://www.w3.org/2000/svg"
 width="700.000000pt" height="700.000000pt" viewBox="0 0 700.000000 700.000000"
 preserveAspectRatio="xMidYMid meet">
<metadata>
Created by potrace 1.14, written by Peter Selinger 2001-2017
</metadata>
<g transform="translate(0.000000,700.000000) scale(0.100000,-0.100000)"
fill="#000000" stroke="none">
<path d="M304 6621 c-2 -2 -4 -372 -4 -821 l0 -817 820 0 820 0 1 21 c1 29 1
1565 0 1596 l-1 26 -816 0 c-448 0 -817 -2 -820 -5z"/>
<path d="M2630 5805 l0 -822 808 0 c444 -1 814 1 822 3 13 3 15 103 15 821
l-1 818 -822 0 -822 1 0 -821z"/>
<path d="M5632 6609 c-245 -47 -461 -208 -572 -428 -154 -303 -109 -668 115
-920 158 -179 372 -274 615 -275 378 -1 700 249 796 619 26 99 26 305 0 400
-115 429 -522 686 -954 604z"/>
<path d="M2630 3480 l0 -820 38 -1 c256 -4 1595 0 1600 5 3 4 7 374 7 822 l0
814 -822 0 -823 0 0 -820z"/>
<path d="M2640 1972 c-7 -3 -10 -286 -10 -823 l0 -819 822 2 822 3 1 808 c0
444 -2 813 -5 820 -4 9 -189 12 -813 12 -444 0 -812 -1 -817 -3z"/>
<path d="M5679 1856 c-2 -2 -20 -6 -39 -9 -122 -19 -255 -80 -363 -166 -198
-159 -307 -386 -307 -639 0 -79 4 -115 24 -210 17 -78 82 -212 139 -287 105
-137 234 -227 407 -286 83 -28 111 -32 220 -35 243 -6 436 67 600 227 102 100
156 184 203 315 101 284 32 616 -174 836 -154 164 -344 247 -580 254 -69 2
-127 2 -130 0z"/>
</g>
</svg>
