<svg id="Logo_On_White" data-name="Logo / On White" xmlns="http://www.w3.org/2000/svg" xmlns:xlink="http://www.w3.org/1999/xlink" width="554.57" height="80.126" viewBox="0 0 554.57 80.126">
  <defs>
    <clipPath id="clip-path">
      <rect id="Rectangle_616" data-name="Rectangle 616" width="554.57" height="80.126" fill="none"/>
    </clipPath>
  </defs>
  <path id="Path_8016" data-name="Path 8016" d="M121.59,22.939h12.856V71.693H145.7V22.939h12.865V12.92H121.59Z" transform="translate(-20.997 -2.231)" fill="#e4002b"/>
  <path id="Path_8017" data-name="Path 8017" d="M184.9,12.92V71.693h36.89V61.682H196.143V47.2H216.4V37.111H196.143V22.939H221.79V12.92H184.9Z" transform="translate(-31.929 -2.231)" fill="#e4002b"/>
  <g id="Group_41" data-name="Group 41">
    <g id="Group_40" data-name="Group 40" clip-path="url(#clip-path)">
      <path id="Path_8018" data-name="Path 8018" d="M276.655,14a21.857,21.857,0,0,0-9.969-2.192A22.506,22.506,0,0,0,256.551,14a16.126,16.126,0,0,0-9.283,14.983v26.11a16.084,16.084,0,0,0,9.357,15.016,22.659,22.659,0,0,0,10.06,2.159,21.856,21.856,0,0,0,9.969-2.192,16.343,16.343,0,0,0,6.743-6.089,16.672,16.672,0,0,0,2.383-8.894V52.4H274.537v1.928a7.793,7.793,0,0,1-2.159,5.791,7.678,7.678,0,0,1-5.692,2.159,8.168,8.168,0,0,1-6.048-2.2,7.76,7.76,0,0,1-2.2-5.733V29.754a7.76,7.76,0,0,1,2.2-5.742,8.166,8.166,0,0,1,6.048-2.192,7.678,7.678,0,0,1,5.692,2.159,7.783,7.783,0,0,1,2.159,5.791V31.7h11.243V28.984a16.7,16.7,0,0,0-2.383-8.9A16.376,16.376,0,0,0,276.655,14" transform="translate(-42.698 -2.039)" fill="#e4002b"/>
      <path id="Path_8019" data-name="Path 8019" d="M337.165,37.26h-14.4V12.92H311.51V71.693h11.252V47.353h14.4v24.34h11.243V12.92H337.165Z" transform="translate(-53.793 -2.231)" fill="#e4002b"/>
      <path id="Path_8020" data-name="Path 8020" d="M376.22,19.009h14.015V65.6H376.22v6.089h34.656V65.6H396.862V19.009h14.015V12.92H376.22Z" transform="translate(-64.967 -2.231)"/>
      <path id="Path_8021" data-name="Path 8021" d="M464.647,13.886a19.573,19.573,0,0,0-9.167-2.077,19.974,19.974,0,0,0-9.241,2.077A14.96,14.96,0,0,0,440,19.735a16.861,16.861,0,0,0-2.192,8.629V55.707A16.782,16.782,0,0,0,440,64.377a15.042,15.042,0,0,0,6.238,5.791,20.082,20.082,0,0,0,9.282,2.077,19.666,19.666,0,0,0,9.167-2.077,14.97,14.97,0,0,0,6.2-5.857,16.844,16.844,0,0,0,2.2-8.629V52.555h-6.618v2.614A10.328,10.328,0,0,1,455.53,66.18a10.979,10.979,0,0,1-8.124-3.036,10.755,10.755,0,0,1-3.045-7.975V28.9a10.757,10.757,0,0,1,3.045-7.967,10.976,10.976,0,0,1,8.124-3.045A10.33,10.33,0,0,1,466.468,28.9v2.623h6.618v-3.16a16.861,16.861,0,0,0-2.2-8.629,14.943,14.943,0,0,0-6.238-5.849" transform="translate(-75.602 -2.039)"/>
      <path id="Path_8022" data-name="Path 8022" d="M514.379,12.92,501.44,46.964V71.726h6.619V52.9h21.419v18.83H536.1V46.195L523.24,12.92ZM508.29,46.964,518.309,20.49h.968l10.168,26.474Z" transform="translate(-86.59 -2.231)"/>
      <path id="Path_8023" data-name="Path 8023" d="M591.252,13.886a19.593,19.593,0,0,0-9.167-2.077,19.972,19.972,0,0,0-9.282,2.077,14.955,14.955,0,0,0-6.263,5.849,16.862,16.862,0,0,0-2.2,8.629V55.707a16.776,16.776,0,0,0,2.2,8.67,15.041,15.041,0,0,0,6.238,5.791,20.083,20.083,0,0,0,9.283,2.077,19.689,19.689,0,0,0,9.167-2.077,15.065,15.065,0,0,0,6.2-5.857,16.836,16.836,0,0,0,2.209-8.6V40.616H583.467v5.791h9.547v8.761A10.328,10.328,0,0,1,582.077,66.18a10.979,10.979,0,0,1-8.124-3.036,10.755,10.755,0,0,1-3.044-7.975V28.9a10.756,10.756,0,0,1,3.078-7.967,10.977,10.977,0,0,1,8.124-3.045,10.326,10.326,0,0,1,10.9,11.012v1.315h6.618V28.364a16.859,16.859,0,0,0-2.192-8.629,15.045,15.045,0,0,0-6.188-5.849" transform="translate(-97.451 -2.039)"/>
      <path id="Path_8024" data-name="Path 8024" d="M660.764,19.735a15.026,15.026,0,0,0-6.2-5.849,19.538,19.538,0,0,0-9.158-2.077,19.951,19.951,0,0,0-9.282,2.077,14.894,14.894,0,0,0-6.238,5.849,16.862,16.862,0,0,0-2.2,8.629V55.707a16.774,16.774,0,0,0,2.2,8.67,14.989,14.989,0,0,0,6.238,5.791,20.061,20.061,0,0,0,9.282,2.077,19.634,19.634,0,0,0,9.158-2.077,15.035,15.035,0,0,0,6.2-5.857,16.835,16.835,0,0,0,2.192-8.629V28.364a16.859,16.859,0,0,0-2.192-8.629m-4.426,35.434A10.339,10.339,0,0,1,645.4,66.18a11.006,11.006,0,0,1-8.133-3.036,10.758,10.758,0,0,1-3.036-7.975V28.9a10.752,10.752,0,0,1,3.036-7.967A11,11,0,0,1,645.4,17.89,10.344,10.344,0,0,1,656.338,28.9Z" transform="translate(-108.389 -2.039)"/>
      <rect id="Rectangle_612" data-name="Rectangle 612" width="20.724" height="20.724" transform="translate(29.411 59.112)" fill="#41b6e6"/>
      <rect id="Rectangle_613" data-name="Rectangle 613" width="20.724" height="20.724" transform="translate(29.411 0.281)" fill="#41b6e6"/>
      <rect id="Rectangle_614" data-name="Rectangle 614" width="20.724" height="20.724" transform="translate(29.411 29.692)" fill="#41b6e6"/>
      <rect id="Rectangle_615" data-name="Rectangle 615" width="20.724" height="20.724" transform="translate(0 0.273)" fill="#41b6e6"/>
      <path id="Path_8025" data-name="Path 8025" d="M81.558,0A10.648,10.648,0,1,1,70.91,10.648,10.647,10.647,0,0,1,81.558,0" transform="translate(-12.245 0)" fill="#41b6e6"/>
      <path id="Path_8026" data-name="Path 8026" d="M81.558,71.11A10.648,10.648,0,1,1,70.91,81.758,10.647,10.647,0,0,1,81.558,71.11" transform="translate(-12.245 -12.28)" fill="#41b6e6"/>
    </g>
  </g>
</svg>
