<svg width="256" height="37" viewBox="0 0 256 37" fill="none" xmlns="http://www.w3.org/2000/svg">
<path d="M107.999 5.52327C106.566 4.82728 104.989 4.48042 103.397 4.51106C101.78 4.47959 100.178 4.82619 98.7182 5.52327C97.4098 6.13614 96.308 7.11664 95.5471 8.34517C94.7862 9.5737 94.3991 10.9972 94.433 12.442V24.4989C94.3965 25.9505 94.7863 27.381 95.5539 28.6134C96.3216 29.8458 97.4336 30.826 98.7524 31.4329C100.203 32.117 101.792 32.4581 103.396 32.4298C104.989 32.4605 106.566 32.1136 107.998 31.4176C109.281 30.7935 110.36 29.8186 111.111 28.6059C111.856 27.3673 112.237 25.944 112.211 24.4989V23.2553H107.021V24.1456C107.046 24.6358 106.97 25.1259 106.799 25.5858C106.628 26.0456 106.364 26.4656 106.024 26.8198C105.677 27.1564 105.265 27.4184 104.813 27.5899C104.362 27.7613 103.879 27.8385 103.397 27.8167C102.887 27.8454 102.376 27.7701 101.897 27.5954C101.417 27.4208 100.977 27.1505 100.605 26.8008C100.264 26.4519 99.9988 26.0371 99.8242 25.5819C99.6495 25.1267 99.5696 24.6407 99.5893 24.1535V12.798C99.569 12.3102 99.6487 11.8233 99.8233 11.3674C99.998 10.9114 100.264 10.496 100.605 10.1465C100.977 9.79751 101.417 9.52783 101.897 9.35384C102.377 9.17984 102.887 9.10516 103.397 9.13433C103.879 9.11254 104.362 9.18974 104.813 9.36118C105.265 9.53263 105.677 9.79471 106.024 10.1313C106.364 10.4853 106.628 10.9052 106.799 11.3652C106.971 11.8251 107.046 12.3152 107.021 12.8054V13.6966H112.211V12.4425C112.237 10.9965 111.856 9.57233 111.111 8.33269C110.359 7.12145 109.28 6.14752 107.999 5.52327Z" fill="#E4002B"/>
<path d="M130.81 16.1755H124.162V4.93591H118.967V32.0757H124.161V20.8361H130.808V32.0757H135.998V4.93591H130.81V16.1755Z" fill="#E4002B"/>
<path d="M143.681 7.74765H150.15V29.2621H143.681V32.0738H159.679V29.2621H153.209V7.74765H159.679V4.93591H143.681V7.74765Z" fill="black"/>
<path d="M179.59 5.47062C178.279 4.81183 176.826 4.48264 175.359 4.51151C173.881 4.48446 172.418 4.81341 171.093 5.47062C169.891 6.0714 168.89 7.01006 168.213 8.17153C167.525 9.38506 167.175 10.7613 167.201 12.1562V24.7824C167.17 26.1839 167.52 27.5676 168.213 28.786C168.895 29.9361 169.895 30.8647 171.093 31.4601C172.423 32.1184 173.893 32.4474 175.377 32.4192C176.845 32.4464 178.297 32.1173 179.609 31.4601C180.805 30.8553 181.799 29.9156 182.471 28.7555C183.161 27.5425 183.511 26.1662 183.487 24.7709V23.3269H180.432V24.534C180.478 25.2108 180.379 25.8896 180.142 26.5252C179.905 27.1607 179.535 27.7384 179.057 28.2196C178.579 28.7009 178.004 29.0746 177.37 29.3158C176.737 29.557 176.059 29.6603 175.382 29.6186C174.694 29.6519 174.007 29.5447 173.363 29.3037C172.718 29.0627 172.129 28.6928 171.632 28.2166C171.159 27.7313 170.79 27.1541 170.548 26.5208C170.306 25.8874 170.197 25.2113 170.226 24.534V12.4037C170.197 11.727 170.307 11.0516 170.549 10.4189C170.791 9.78622 171.159 9.20969 171.632 8.72473C172.128 8.24774 172.717 7.87704 173.362 7.63529C174.007 7.39353 174.694 7.28579 175.382 7.31863C176.059 7.27714 176.737 7.38052 177.37 7.62187C178.004 7.86321 178.579 8.23698 179.057 8.71822C179.535 9.19947 179.904 9.77712 180.141 10.4126C180.378 11.0482 180.477 11.7269 180.431 12.4037V13.6149H183.486V12.1557C183.511 10.7604 183.16 9.38424 182.471 8.17106C181.794 7.00938 180.793 6.07064 179.591 5.47015" fill="black"/>
<path d="M197.476 4.93591L191.503 20.6565V32.0909H194.558V23.3976H204.446V32.0928H207.503V20.3014L201.566 4.93591H197.476ZM194.665 20.6565L199.29 8.43153H199.737L204.431 20.6565H194.665Z" fill="black"/>
<path d="M227.948 5.47064C226.636 4.81221 225.184 4.48304 223.717 4.51154C222.232 4.4814 220.762 4.81043 219.432 5.47064C218.225 6.06956 217.22 7.00841 216.541 8.17155C215.851 9.38474 215.501 10.7609 215.525 12.1562V24.7824C215.495 26.1843 215.846 27.568 216.541 28.786C217.223 29.9361 218.223 30.8647 219.42 31.4601C220.751 32.1185 222.221 32.4474 223.706 32.4192C225.173 32.446 226.625 32.1169 227.937 31.4601C229.132 30.8532 230.126 29.914 230.799 28.7555C231.488 27.5469 231.84 26.1755 231.819 24.7843V17.8138H224.355V20.488H228.762V24.5335C228.808 25.2103 228.709 25.8891 228.472 26.5246C228.235 27.1602 227.866 27.7379 227.388 28.2191C226.91 28.7004 226.335 29.0742 225.701 29.3155C225.068 29.5568 224.39 29.6602 223.713 29.6186C223.025 29.6519 222.338 29.5448 221.694 29.3037C221.049 29.0627 220.46 28.6928 219.963 28.2166C219.49 27.7312 219.121 27.1541 218.879 26.5208C218.638 25.8874 218.528 25.2113 218.558 24.534V12.4037C218.531 11.7259 218.643 11.0498 218.887 10.4171C219.132 9.78438 219.503 9.20842 219.978 8.72476C220.475 8.24779 221.064 7.87711 221.709 7.63535C222.354 7.3936 223.041 7.28584 223.729 7.31866C224.404 7.27946 225.08 7.38456 225.712 7.62696C226.344 7.86936 226.916 8.24351 227.392 8.72453C227.868 9.20555 228.237 9.78241 228.472 10.4168C228.708 11.0511 228.806 11.7285 228.76 12.4037V13.0109H231.815V12.1562C231.841 10.7613 231.492 9.38507 230.803 8.17155C230.131 7.01488 229.139 6.07701 227.947 5.47064" fill="black"/>
<path d="M254.987 8.17154C254.314 7.01376 253.32 6.07571 252.125 5.47063C250.815 4.81189 249.364 4.48268 247.897 4.51153C246.413 4.481 244.943 4.81006 243.613 5.47063C242.41 6.07001 241.408 7.00903 240.733 8.17154C240.044 9.38472 239.693 10.7609 239.718 12.1562V24.7824C239.688 26.1843 240.039 27.568 240.733 28.786C241.415 29.937 242.415 30.8658 243.613 31.4601C244.943 32.1188 246.413 32.4477 247.897 32.4192C249.363 32.4463 250.814 32.1172 252.125 31.4601C253.32 30.8538 254.314 29.9145 254.987 28.7555C255.676 27.5422 256.025 26.1659 255.999 24.7709V12.1562C256.025 10.7613 255.675 9.38506 254.987 8.17154ZM252.944 24.534C252.989 25.2105 252.89 25.889 252.653 26.5241C252.415 27.1593 252.046 27.7366 251.568 28.2176C251.09 28.6987 250.516 29.0724 249.882 29.314C249.249 29.5555 248.571 29.6594 247.895 29.6186C247.207 29.6517 246.519 29.5445 245.874 29.3035C245.228 29.0625 244.638 28.6927 244.14 28.2166C243.668 27.7309 243.3 27.1536 243.059 26.5203C242.818 25.8869 242.709 25.211 242.739 24.534V12.4037C242.709 11.7273 242.819 11.052 243.06 10.4193C243.301 9.78665 243.668 9.20997 244.14 8.72474C244.638 8.24793 245.228 7.87746 245.873 7.63588C246.519 7.3943 247.206 7.28668 247.895 7.31957C248.571 7.27915 249.248 7.38324 249.882 7.62491C250.515 7.86657 251.089 8.24028 251.567 8.7212C252.044 9.20211 252.414 9.77921 252.652 10.4141C252.889 11.0491 252.989 11.7273 252.944 12.4037V24.534Z" fill="black"/>
<path d="M23.1437 27.2963H13.5771V36.8661H23.1437V27.2963Z" fill="#41B6E6"/>
<path d="M23.1437 0.129761H13.5771V9.69954H23.1437V0.129761Z" fill="#41B6E6"/>
<path d="M23.1437 13.7109H13.5771V23.2807H23.1437V13.7109Z" fill="#41B6E6"/>
<path d="M9.56659 0.126038H0V9.69582H9.56659V0.126038Z" fill="#41B6E6"/>
<path d="M31.9964 2.16896e-08C32.9685 2.16896e-08 33.9189 0.288374 34.7272 0.828656C35.5355 1.36894 36.1655 2.13686 36.5375 3.03532C36.9096 3.93377 37.0069 4.92241 36.8172 5.87621C36.6276 6.83 36.1594 7.70612 35.472 8.39377C34.7846 9.08142 33.9088 9.54971 32.9553 9.73943C32.0018 9.92916 31.0135 9.83178 30.1154 9.45963C29.2172 9.08748 28.4495 8.45726 27.9094 7.64867C27.3693 6.84008 27.0811 5.88944 27.0811 4.91696C27.081 4.27123 27.2081 3.63183 27.4551 3.03525C27.7021 2.43867 28.0641 1.8966 28.5206 1.44001C28.977 0.983414 29.5189 0.621236 30.1153 0.374157C30.7117 0.127079 31.3509 -6.06293e-05 31.9964 2.16896e-08" fill="#41B6E6"/>
<path d="M31.9964 27.1661C32.9685 27.1661 33.9189 27.4545 34.7272 27.9947C35.5355 28.535 36.1655 29.3029 36.5375 30.2014C36.9096 31.0999 37.0069 32.0885 36.8172 33.0423C36.6276 33.9961 36.1594 34.8722 35.472 35.5598C34.7846 36.2475 33.9088 36.7158 32.9553 36.9055C32.0018 37.0952 31.0135 36.9979 30.1154 36.6257C29.2172 36.2536 28.4495 35.6233 27.9094 34.8147C27.3693 34.0062 27.0811 33.0555 27.0811 32.083C27.081 31.4373 27.2081 30.7979 27.4551 30.2013C27.7021 29.6047 28.0641 29.0627 28.5206 28.6061C28.977 28.1495 29.5189 27.7873 30.1153 27.5402C30.7117 27.2932 31.3509 27.166 31.9964 27.1661Z" fill="#41B6E6"/>
</svg>
