<svg width="260" height="42" viewBox="0 0 260 42" fill="none" xmlns="http://www.w3.org/2000/svg">
<path d="M17.3049 0L0 33.701H8.03872L25.3499 0H17.3049Z" fill="#F2617A"/>
<path d="M116.898 13.4905L115.512 16.1848H115.429C114.856 15.1091 113.97 14.2296 112.885 13.6609C111.79 13.1612 110.593 12.9173 109.388 12.9479C108.087 12.9208 106.798 13.202 105.629 13.7682C104.561 14.2931 103.625 15.0476 102.888 15.9766C102.133 16.9315 101.565 18.0189 101.215 19.182C100.831 20.4076 100.638 21.6844 100.643 22.9679C100.634 24.2868 100.795 25.6013 101.12 26.8801C101.417 28.0532 101.946 29.1558 102.678 30.1233C103.395 31.0565 104.326 31.807 105.394 32.3129C106.629 32.8751 107.978 33.1492 109.337 33.1142C110.553 33.1201 111.756 32.8594 112.86 32.3507C113.959 31.8638 114.866 31.0325 115.442 29.9845H115.518V32.6473C115.518 35.8022 114.03 37.6068 111.067 37.6068C108.103 37.6068 106.526 36.3449 105.686 35.3101L103.664 39.279C103.664 39.279 105.953 41.3234 110.284 41.3234C117.464 41.3234 120.835 37.8592 120.835 32.4075V13.4779L116.898 13.4905ZM115.219 25.4351C115.032 26.0762 114.73 26.6788 114.329 27.2145C113.932 27.7402 113.421 28.1713 112.835 28.4765C112.188 28.7979 111.472 28.9582 110.749 28.9434C109.987 28.9717 109.234 28.7811 108.58 28.3944C108.009 28.0398 107.53 27.558 107.181 26.9873C106.816 26.3943 106.564 25.7399 106.437 25.0565C106.29 24.3422 106.215 23.615 106.214 22.8859C106.212 22.1546 106.3 21.4257 106.475 20.7153C106.632 20.0573 106.912 19.4344 107.302 18.8791C107.672 18.3577 108.157 17.9262 108.72 17.6172C109.344 17.2891 110.043 17.1281 110.749 17.1502C111.541 17.1196 112.328 17.2935 113.032 17.655C113.617 17.9809 114.113 18.4447 114.475 19.0053C114.856 19.611 115.123 20.2802 115.264 20.9803C115.426 21.7566 115.505 22.5476 115.499 23.3402C115.507 24.0482 115.413 24.7537 115.219 25.4351Z" fill="#003D4F"/>
<path d="M42.3178 5.79242V16.3047H42.4386C43.069 15.205 44.014 14.3156 45.1542 13.7492C46.1523 13.2388 47.2559 12.9645 48.3786 12.9478C49.6381 12.9144 50.8918 13.1289 52.0672 13.5788C52.9558 13.9341 53.736 14.5125 54.3313 15.2572C54.9061 16.0353 55.3012 16.9293 55.4888 17.8758C55.7221 19.0009 55.835 20.1472 55.8258 21.2958V33.7262H50.242V22.2864C50.3292 20.9951 50.0564 19.7049 49.4534 18.5573C48.9319 17.7307 47.997 17.2953 46.6615 17.2953C45.1351 17.2953 44.0349 17.7496 43.348 18.6456C42.6612 19.5416 42.3241 21.0244 42.3241 23.0625V33.701H36.7275V5.79242H42.3178Z" fill="#003D4F"/>
<path d="M58.1722 19.2199C58.6305 17.9614 59.3547 16.8147 60.2964 15.8568C61.2376 14.9212 62.3635 14.1887 63.6034 13.7051C66.4095 12.6935 69.4848 12.6935 72.2908 13.7051C73.5495 14.1759 74.6897 14.9132 75.6321 15.8656C76.5744 16.818 77.2963 17.9626 77.7475 19.2199C78.2645 20.6352 78.5187 22.1316 78.498 23.6368C78.5171 25.1295 78.2628 26.6133 77.7475 28.0159C77.2812 29.263 76.5578 30.3999 75.6234 31.3538C74.6757 32.2783 73.5394 32.9905 72.2908 33.4424C69.4781 34.4282 66.4098 34.4282 63.5971 33.4424C62.3546 32.9725 61.2272 32.2455 60.29 31.3096C59.3514 30.359 58.6273 29.2212 58.1659 27.9717C57.6475 26.5699 57.3932 25.0856 57.4154 23.5927C57.399 22.1017 57.6554 20.6201 58.1722 19.2199ZM63.26 25.9778C63.4006 26.7125 63.6743 27.4158 64.0677 28.0537C64.4403 28.6601 64.9609 29.1635 65.5813 29.5176C66.3064 29.9069 67.1233 30.0964 67.9471 30.0666C68.7748 30.0938 69.5951 29.9045 70.3257 29.5176C70.9563 29.1681 71.4861 28.6641 71.8647 28.0537C72.2558 27.4147 72.5293 26.7118 72.6724 25.9778C72.8316 25.2011 72.9104 24.4104 72.9077 23.6179C72.9095 22.8171 72.8307 22.0181 72.6724 21.2328C72.5324 20.4979 72.2587 19.7945 71.8647 19.1568C71.4784 18.5438 70.9482 18.0329 70.3193 17.6677C69.5911 17.2736 68.7699 17.0797 67.9408 17.1061C67.1702 17.0654 66.4028 17.2321 65.7199 17.5887C65.0369 17.9452 64.4639 18.4783 64.0613 19.1316C63.6648 19.7679 63.3909 20.4719 63.2537 21.2075C63.0933 21.9926 63.0124 22.7916 63.012 23.5927C63.0096 24.3938 63.0906 25.1931 63.2537 25.9778H63.26Z" fill="#003D4F"/>
<path d="M93.7621 33.7011V30.9184H93.6476C93.0067 32.0178 92.0441 32.898 90.8875 33.4423C89.8033 33.9496 88.6201 34.2145 87.4214 34.2185C86.168 34.258 84.9184 34.0611 83.7391 33.638C82.8459 33.2971 82.0632 32.7212 81.4751 31.9721C80.8945 31.1967 80.4968 30.3018 80.3112 29.3536C80.0779 28.2285 79.965 27.0822 79.9742 25.9336V13.4905H85.5707V24.9051C85.4837 26.1984 85.7565 27.4906 86.3593 28.6405C86.8808 29.4608 87.8136 29.8815 89.1576 29.9025C90.6797 29.9025 91.7821 29.4524 92.4647 28.5522C93.1452 27.6562 93.4886 26.1734 93.4886 24.1353V13.4905H99.0788V33.6821L93.7621 33.7011Z" fill="#003D4F"/>
<path d="M128.518 5.79242V16.3047H128.632C129.266 15.2055 130.213 14.3165 131.354 13.7492C132.352 13.2388 133.456 12.9645 134.579 12.9478C135.838 12.9144 137.092 13.1289 138.267 13.5788C139.16 13.9242 139.947 14.4939 140.551 15.232C141.125 16.011 141.522 16.9044 141.714 17.8506C141.945 18.9759 142.056 20.1222 142.045 21.2705V33.701H136.455V22.2864C136.539 20.9953 136.266 19.7059 135.666 18.5573C135.141 17.716 134.208 17.2953 132.868 17.2953C131.342 17.2953 130.241 17.7496 129.561 18.6456C128.88 19.5416 128.537 21.0244 128.537 23.0625V33.701H122.94V5.79242H128.518Z" fill="#003D4F"/>
<path d="M184.725 19.2199C185.179 17.9678 185.898 16.8272 186.836 15.8756C187.773 14.924 188.905 14.1837 190.157 13.7051C192.963 12.6935 196.038 12.6935 198.844 13.7051C200.101 14.1785 201.24 14.9167 202.182 15.8687C203.124 16.8208 203.847 17.9641 204.301 19.2199C204.818 20.6352 205.072 22.1316 205.051 23.6368C205.07 25.1295 204.816 26.6133 204.301 28.0159C203.835 29.2648 203.109 30.4022 202.17 31.3538C201.228 32.2788 200.095 32.9912 198.85 33.4424C196.038 34.4282 192.969 34.4282 190.157 33.4424C188.913 32.9741 187.786 32.2469 186.849 31.3096C185.911 30.3581 185.185 29.2207 184.719 27.9717C184.206 26.5687 183.954 25.085 183.975 23.5927C183.959 22.1023 184.214 20.6212 184.725 19.2199ZM189.813 25.9778C189.956 26.7118 190.23 27.4147 190.621 28.0537C190.998 28.659 191.52 29.162 192.141 29.5176C192.866 29.9069 193.683 30.0964 194.507 30.0666C195.334 30.0938 196.155 29.9045 196.885 29.5176C197.514 29.1663 198.044 28.6627 198.424 28.0537C198.815 27.4147 199.089 26.7118 199.232 25.9778C199.391 25.2011 199.47 24.4104 199.467 23.6179C199.469 22.8171 199.39 22.0181 199.232 21.2328C199.092 20.4979 198.818 19.7945 198.424 19.1568C198.036 18.5453 197.506 18.0347 196.879 17.6677C196.151 17.2736 195.329 17.0797 194.5 17.1061C193.675 17.077 192.857 17.2711 192.134 17.6677C191.52 18.0324 191 18.5335 190.614 19.1316C190.221 19.7692 189.947 20.4727 189.807 21.2075C189.652 21.9933 189.573 22.792 189.571 23.5927C189.57 24.3935 189.649 25.1924 189.807 25.9778H189.813Z" fill="#003D4F"/>
<path d="M228.143 5.79242V20.7657L235.19 13.4905H241.811L234.128 20.9172L242.682 33.701H235.902L230.312 24.6716L228.143 26.7412V33.6821H222.547V5.79242H228.143Z" fill="#003D4F"/>
<path d="M246.816 28.6783C247.054 29.0953 247.382 29.4551 247.776 29.7321C248.188 30.0203 248.649 30.234 249.137 30.363C249.658 30.4955 250.195 30.5613 250.733 30.5586C251.15 30.5574 251.566 30.5108 251.973 30.4198C252.387 30.3372 252.786 30.1925 253.156 29.9908C253.507 29.8 253.809 29.5324 254.04 29.2083C254.295 28.8378 254.42 28.3944 254.396 27.9464C254.396 27.1135 253.837 26.4888 252.724 26.0534C251.2 25.5226 249.64 25.1009 248.056 24.7914C247.242 24.6084 246.447 24.3939 245.671 24.1604C244.931 23.9438 244.226 23.6229 243.578 23.2076C242.983 22.8143 242.485 22.2922 242.122 21.6807C241.735 20.9959 241.543 20.2191 241.569 19.4343C241.521 18.3158 241.787 17.2061 242.338 16.2289C242.833 15.4094 243.532 14.7295 244.367 14.2539C245.256 13.7595 246.224 13.4201 247.229 13.2507C248.292 13.0549 249.372 12.9577 250.453 12.9604C251.532 12.9567 252.607 13.0603 253.665 13.2696C254.647 13.4566 255.588 13.8156 256.444 14.3297C257.261 14.8259 257.955 15.4989 258.473 16.2983C259.05 17.2399 259.382 18.3088 259.44 19.4091H254.123C254.134 18.972 254.026 18.5399 253.812 18.1581C253.597 17.7763 253.283 17.4587 252.902 17.2385C252.094 16.8438 251.201 16.649 250.301 16.6706C249.959 16.6719 249.617 16.6908 249.277 16.7274C248.931 16.7633 248.592 16.8505 248.272 16.9861C247.972 17.1092 247.707 17.3044 247.502 17.554C247.281 17.8359 247.17 18.1879 247.191 18.5447C247.182 18.7747 247.227 19.0036 247.322 19.2136C247.417 19.4237 247.559 19.6093 247.738 19.7562C248.162 20.1011 248.65 20.3605 249.175 20.5196C249.84 20.735 250.518 20.9119 251.204 21.0497C251.967 21.2095 252.743 21.3799 253.531 21.5608C254.336 21.7377 255.13 21.9589 255.91 22.2233C256.647 22.4641 257.344 22.8129 257.977 23.2581C258.577 23.6793 259.077 24.2265 259.44 24.8608C259.83 25.5876 260.021 26.4038 259.993 27.227C260.046 28.3201 259.803 29.4073 259.29 30.3759C258.777 31.3445 258.011 32.1593 257.074 32.7356C256.165 33.3011 255.158 33.6928 254.104 33.8903C252.981 34.1103 251.839 34.2202 250.695 34.2184C249.531 34.2214 248.369 34.1051 247.229 33.8713C246.16 33.6591 245.139 33.2572 244.214 32.6851C243.258 32.1046 242.471 31.2875 241.929 30.3141C241.387 29.3407 241.11 28.2443 241.124 27.1324H246.44C246.423 27.6718 246.553 28.2058 246.816 28.6783Z" fill="#003D4F"/>
<path d="M153.861 29.5555C153.188 29.6367 152.51 29.4706 151.953 29.0885C151.568 28.5359 151.4 27.8624 151.482 27.1956V17.207H154.605L156.513 13.4905H151.488V7.43304H145.892V13.4905H143.093L141.186 17.2007H145.885V29.1264C145.849 29.9764 146.026 30.822 146.401 31.5872C146.72 32.1922 147.205 32.6953 147.8 33.0385C148.434 33.3888 149.128 33.6199 149.848 33.72C150.662 33.8416 151.485 33.9007 152.309 33.8966C152.862 33.8966 153.422 33.8966 154 33.8588C154.529 33.8366 155.055 33.784 155.578 33.701V29.3977C155.305 29.4549 155.029 29.4949 154.751 29.5176C154.477 29.5428 154.178 29.5555 153.861 29.5555Z" fill="#003D4F"/>
<path d="M33.2419 29.5555C32.5698 29.6361 31.8911 29.47 31.3339 29.0885C30.9489 28.5359 30.7814 27.8624 30.8633 27.1956V17.207H33.7443L35.6522 13.4905H30.876V7.43304H25.2858V13.4905H22.4812L20.5732 17.2007H25.2795V29.1264C25.2411 29.9758 25.416 30.8214 25.7882 31.5872C26.1094 32.1908 26.5939 32.6934 27.1874 33.0385C27.8281 33.3901 28.5289 33.6211 29.2543 33.72C30.0689 33.8416 30.8917 33.9007 31.7155 33.8966C32.2688 33.8966 32.8348 33.8966 33.4072 33.8588C33.9335 33.8364 34.458 33.7837 34.9781 33.701V29.3977C34.7053 29.4549 34.4292 29.4949 34.1513 29.5176C33.8587 29.5428 33.5535 29.5555 33.2419 29.5555Z" fill="#003D4F"/>
<path d="M218.184 12.9479C213.484 12.9479 211.684 17.2449 211.684 17.2449H211.608V13.4905H206.291V33.6821H211.881V25.2395C211.881 20.3178 212.848 18.122 217.077 18.122C217.838 18.1111 218.59 18.2889 219.265 18.6394L221.663 13.9701C220.629 13.2974 219.419 12.9418 218.184 12.9479Z" fill="#003D4F"/>
<path d="M179.282 13.4968L175.536 27.1703H175.459L171.993 13.4968H166.556L163.166 27.2144H163.09L159.35 13.4968L155.706 20.5827L159.903 33.701H165.691L169.157 20.1347H169.233L172.858 33.701H178.614L185.031 13.4968H179.282Z" fill="#003D4F"/>
</svg>
