<svg width="107" height="16" viewBox="0 0 107 16" fill="none" xmlns="http://www.w3.org/2000/svg">
<g clip-path="url(#clip0_1472_41292)">
<path d="M9.04183 -0.00952148L2.33984 13.1408H5.45447L12.154 -0.00952148H9.04183Z" fill="#F2617A"/>
<path d="M47.2794 5.23155L46.7497 6.27397H46.7179C46.4567 5.82234 46.132 5.50009 45.7439 5.30723C45.3557 5.11681 44.9041 5.01917 44.3914 5.01917C43.847 5.01917 43.3661 5.12414 42.9462 5.33653C42.5263 5.54892 42.1772 5.83455 41.894 6.19097C41.6133 6.54984 41.3984 6.96242 41.2519 7.43114C41.1055 7.89986 41.0322 8.38567 41.0322 8.89101C41.0322 9.42565 41.0957 9.931 41.2202 10.4119C41.3472 10.8904 41.5449 11.3103 41.8183 11.6667C42.0893 12.0256 42.4384 12.3064 42.8607 12.5139C43.2831 12.7214 43.7884 12.8239 44.3743 12.8239C44.8479 12.8239 45.2996 12.7263 45.7268 12.5285C46.1564 12.3308 46.486 12.028 46.7179 11.613H46.7472V12.6408C46.7472 13.8541 46.1735 14.5621 45.0432 14.5621C43.93 14.5621 43.3002 14.0665 42.9779 13.6735L42.1943 15.209C42.1943 15.209 43.0707 16 44.7356 16C47.4967 16 48.7881 14.6671 48.7881 12.5529V5.234H47.2794V5.23155ZM46.6349 9.85044C46.5593 10.1068 46.447 10.3362 46.2956 10.5389C46.1442 10.7415 45.9538 10.9026 45.7219 11.0222C45.49 11.1443 45.2239 11.2029 44.9212 11.2029C44.5892 11.2029 44.3109 11.1321 44.0887 10.9905C43.8665 10.8489 43.6883 10.6683 43.5516 10.4461C43.4149 10.224 43.3197 9.97494 43.2635 9.69664C43.2074 9.41833 43.1805 9.14003 43.1805 8.85684C43.1805 8.56389 43.2123 8.28558 43.2782 8.01704C43.3441 7.75094 43.4491 7.51414 43.5956 7.30663C43.742 7.09912 43.9227 6.93556 44.14 6.81594C44.3572 6.69387 44.616 6.63528 44.9187 6.63528C45.2703 6.63528 45.5632 6.7012 45.7951 6.83303C46.0271 6.96485 46.2126 7.14063 46.3542 7.36278C46.4958 7.58494 46.5959 7.83883 46.6569 8.1269C46.7179 8.41497 46.7472 8.72013 46.7472 9.04238C46.7497 9.32312 46.7106 9.5941 46.6349 9.85044Z" fill="#EDF1F3"/>
<path d="M18.6542 2.25073V6.31789H18.7006C18.9715 5.86381 19.3206 5.53424 19.743 5.32673C20.1653 5.11922 20.5803 5.01669 20.9831 5.01669C21.5568 5.01669 22.028 5.09481 22.3966 5.25105C22.7653 5.4073 23.0533 5.62456 23.2657 5.90042C23.4781 6.17629 23.6246 6.51563 23.7125 6.91356C23.7979 7.31148 23.8419 7.75335 23.8419 8.23672V13.046H21.6936V8.63465C21.6936 7.99015 21.5935 7.50922 21.3908 7.18941C21.1882 6.87205 20.8318 6.71337 20.3167 6.71337C19.7308 6.71337 19.3084 6.8867 19.0472 7.2358C18.786 7.5849 18.6542 8.15616 18.6542 8.95201V13.0509H16.5059V2.25317H18.6542V2.25073Z" fill="#EDF1F3"/>
<path d="M24.7373 7.44579C24.9277 6.93801 25.2011 6.50346 25.5527 6.14459C25.9042 5.78572 26.329 5.50987 26.8221 5.31212C27.3153 5.11682 27.8694 5.01672 28.4846 5.01672C29.0998 5.01672 29.6564 5.11438 30.1569 5.31212C30.6549 5.50987 31.0821 5.78572 31.4337 6.14459C31.7852 6.50346 32.0587 6.93556 32.2491 7.44579C32.4395 7.95601 32.5371 8.52239 32.5371 9.14735C32.5371 9.77232 32.4419 10.3363 32.2491 10.8416C32.0562 11.3445 31.7852 11.7766 31.4337 12.1355C31.0797 12.4943 30.6549 12.7678 30.1569 12.9582C29.6589 13.1486 29.1023 13.2462 28.4846 13.2462C27.8694 13.2462 27.3153 13.151 26.8221 12.9582C26.329 12.7678 25.9042 12.4919 25.5527 12.1355C25.1987 11.779 24.9277 11.3469 24.7373 10.8416C24.5444 10.3387 24.4492 9.77232 24.4492 9.14735C24.4492 8.52239 24.5444 7.95601 24.7373 7.44579ZM26.6879 10.0628C26.7489 10.3607 26.8514 10.6268 26.9979 10.8636C27.1444 11.1004 27.3372 11.2883 27.5789 11.4299C27.8206 11.5715 28.1233 11.6423 28.4871 11.6423C28.8508 11.6423 29.156 11.5715 29.4026 11.4299C29.6491 11.2883 29.8469 11.1004 29.9933 10.8636C30.1398 10.6268 30.2423 10.3582 30.3034 10.0628C30.3644 9.76499 30.3937 9.45984 30.3937 9.14735C30.3937 8.83487 30.3644 8.52727 30.3034 8.22455C30.2423 7.92184 30.1398 7.65574 29.9933 7.42382C29.8469 7.1919 29.6516 7.00392 29.4026 6.85744C29.156 6.71097 28.8508 6.63773 28.4871 6.63773C28.1258 6.63773 27.8231 6.71097 27.5789 6.85744C27.3372 7.00392 27.1419 7.1919 26.9979 7.42382C26.8514 7.65574 26.7489 7.92184 26.6879 8.22455C26.6268 8.52727 26.5975 8.83487 26.5975 9.14735C26.5975 9.45984 26.6268 9.76499 26.6879 10.0628Z" fill="#EDF1F3"/>
<path d="M38.3996 13.0484V11.9596H38.3532C38.0822 12.4137 37.7282 12.7408 37.2937 12.9435C36.8592 13.1437 36.4173 13.2462 35.9632 13.2462C35.3895 13.2462 34.9184 13.1705 34.5497 13.0192C34.1811 12.8678 33.893 12.653 33.6806 12.3771C33.4682 12.1012 33.3193 11.7619 33.2339 11.364C33.1484 10.966 33.1045 10.5242 33.1045 10.0408V5.23151H35.2528V9.64776C35.2528 10.2923 35.3529 10.7732 35.5555 11.093C35.7557 11.4104 36.1146 11.569 36.6297 11.569C37.2131 11.569 37.6379 11.3957 37.8991 11.0466C38.1603 10.7 38.2922 10.1263 38.2922 9.3304V5.23151H40.4405V13.0484H38.3996Z" fill="#EDF1F3"/>
<path d="M51.7401 2.25073V6.31789H51.7865C52.0575 5.86381 52.4066 5.53424 52.8289 5.32673C53.2513 5.11922 53.6663 5.01669 54.0691 5.01669C54.6428 5.01669 55.1139 5.09481 55.4826 5.25105C55.8512 5.4073 56.1393 5.62456 56.3517 5.90042C56.5641 6.17629 56.7105 6.51563 56.7984 6.91356C56.8839 7.31148 56.9278 7.75335 56.9278 8.23672V13.046H54.7795V8.63465C54.7795 7.99015 54.6794 7.50922 54.4768 7.18941C54.2742 6.87205 53.9177 6.71337 53.4026 6.71337C52.8167 6.71337 52.3944 6.8867 52.1332 7.2358C51.872 7.5849 51.7401 8.15616 51.7401 8.95201V13.0509H49.5918V2.25317H51.7401V2.25073Z" fill="#EDF1F3"/>
<path d="M73.3193 7.44579C73.5097 6.93801 73.7832 6.50346 74.1347 6.14459C74.4863 5.78572 74.911 5.50987 75.4042 5.31212C75.8973 5.11682 76.4515 5.01672 77.0667 5.01672C77.6819 5.01672 78.2385 5.11438 78.7389 5.31212C79.237 5.50987 79.6642 5.78572 80.0157 6.14459C80.3697 6.50346 80.6407 6.93556 80.8311 7.44579C81.0215 7.95601 81.1192 8.52239 81.1192 9.14735C81.1192 9.77232 81.024 10.3363 80.8311 10.8416C80.6407 11.3445 80.3673 11.7766 80.0157 12.1355C79.6642 12.4943 79.237 12.7678 78.7389 12.9582C78.2409 13.1486 77.6819 13.2462 77.0667 13.2462C76.4515 13.2462 75.8973 13.151 75.4042 12.9582C74.911 12.7678 74.4863 12.4919 74.1347 12.1355C73.7807 11.779 73.5097 11.3469 73.3193 10.8416C73.1289 10.3387 73.0312 9.77232 73.0312 9.14735C73.0312 8.52239 73.1289 7.95601 73.3193 7.44579ZM75.2699 10.0628C75.3309 10.3607 75.4335 10.6268 75.5799 10.8636C75.7264 11.1004 75.9193 11.2883 76.161 11.4299C76.4026 11.5715 76.7054 11.6423 77.0691 11.6423C77.4329 11.6423 77.7356 11.5715 77.9846 11.4299C78.2311 11.2883 78.4289 11.1004 78.5729 10.8636C78.7194 10.6268 78.8219 10.3582 78.883 10.0628C78.944 9.76744 78.9733 9.45984 78.9733 9.14735C78.9733 8.83487 78.9416 8.52727 78.883 8.22455C78.8244 7.92184 78.7194 7.65574 78.5729 7.42382C78.4265 7.1919 78.2311 7.00392 77.9846 6.85744C77.738 6.71097 77.4329 6.63773 77.0691 6.63773C76.7054 6.63773 76.4051 6.71097 76.161 6.85744C75.9193 7.00392 75.7264 7.1919 75.5799 7.42382C75.4335 7.65574 75.3309 7.92184 75.2699 8.22455C75.2089 8.52727 75.1796 8.83487 75.1796 9.14735C75.1796 9.45984 75.2089 9.76499 75.2699 10.0628Z" fill="#EDF1F3"/>
<path d="M89.9823 2.25073V8.04142L92.6897 5.22908H95.231L92.282 8.10245L95.563 13.0485H92.9631L90.8148 9.555L89.9823 10.3557V13.0485H87.834V2.25073H89.9823V2.25073Z" fill="#EDF1F3"/>
<path d="M97.1508 11.1052C97.246 11.2713 97.3705 11.408 97.5218 11.5129C97.6732 11.6179 97.8465 11.696 98.0443 11.7473C98.242 11.7986 98.4446 11.823 98.657 11.823C98.8084 11.823 98.9671 11.8059 99.1331 11.7693C99.2991 11.7351 99.4504 11.6789 99.5871 11.6033C99.7238 11.5276 99.8361 11.4275 99.9265 11.3006C100.017 11.176 100.063 11.0174 100.063 10.8245C100.063 10.5023 99.8484 10.2606 99.4211 10.0994C98.9915 9.93832 98.3958 9.77719 97.6292 9.61607C97.3168 9.54527 97.0116 9.46227 96.7138 9.36706C96.4159 9.27185 96.1523 9.14491 95.9204 8.98867C95.6884 8.83243 95.5029 8.63712 95.3613 8.40032C95.2197 8.16352 95.1489 7.87301 95.1489 7.53123C95.1489 7.02589 95.2466 6.61331 95.4443 6.29106C95.6421 5.96881 95.9008 5.71492 96.2231 5.52694C96.5453 5.34141 96.9091 5.20958 97.3119 5.1339C97.7147 5.05822 98.1273 5.02161 98.552 5.02161C98.9768 5.02161 99.387 5.06311 99.7849 5.14367C100.183 5.22423 100.539 5.36094 100.852 5.55136C101.164 5.74178 101.423 5.99811 101.63 6.31548C101.836 6.63284 101.96 7.03321 102.002 7.51658H99.9607C99.9314 7.10401 99.7751 6.82326 99.4919 6.67679C99.2088 6.53031 98.8767 6.45707 98.4935 6.45707C98.3738 6.45707 98.242 6.4644 98.1004 6.47904C97.9588 6.49369 97.8319 6.52787 97.7147 6.57669C97.5999 6.62796 97.4999 6.7012 97.4193 6.79641C97.3387 6.89162 97.2997 7.021 97.2997 7.18212C97.2997 7.37498 97.3705 7.53123 97.5121 7.65085C97.6537 7.77291 97.8367 7.87056 98.0638 7.94624C98.2908 8.02192 98.5496 8.09028 98.8426 8.15131C99.1355 8.21234 99.4333 8.27825 99.7336 8.34905C100.046 8.41985 100.351 8.5053 100.649 8.60539C100.947 8.70548 101.211 8.83975 101.443 9.00575C101.674 9.17176 101.86 9.37927 102.002 9.62584C102.143 9.8724 102.214 10.1776 102.214 10.5413C102.214 11.0564 102.111 11.4861 101.904 11.8352C101.696 12.1843 101.428 12.4626 101.096 12.675C100.764 12.8874 100.383 13.0363 99.9533 13.1217C99.5237 13.2072 99.0891 13.2511 98.6448 13.2511C98.1907 13.2511 97.7464 13.2072 97.3143 13.1144C96.8822 13.0241 96.4965 12.8727 96.1572 12.6603C95.8178 12.4479 95.542 12.1696 95.3247 11.8205C95.1074 11.4739 94.9902 11.0369 94.9707 10.512H97.0116C97.0067 10.7391 97.0555 10.9392 97.1508 11.1052Z" fill="#EDF1F3"/>
<path d="M61.4714 11.4471C61.1077 11.4471 60.866 11.3861 60.7463 11.2664C60.6267 11.1444 60.5657 10.9027 60.5657 10.5414V6.66953H61.7644L62.4967 5.23162H60.5681V2.888H58.4198V5.23162H57.3432L56.6133 6.66464L58.4198 6.66709V11.2786C58.4198 11.6717 58.4857 11.9891 58.6151 12.2307C58.747 12.4724 58.9252 12.658 59.1522 12.7898C59.3792 12.9216 59.6405 13.0095 59.9383 13.0534C60.2361 13.0998 60.551 13.1218 60.8831 13.1218C61.0954 13.1218 61.3103 13.1169 61.5324 13.1072C61.7546 13.0974 61.9572 13.0779 62.1379 13.0461V11.3812C62.0378 11.4007 61.9304 11.4178 61.8205 11.4276C61.7082 11.4422 61.5935 11.4471 61.4714 11.4471Z" fill="#EDF1F3"/>
<path d="M15.1677 11.4471C14.8039 11.4471 14.5623 11.3861 14.4426 11.2664C14.323 11.1444 14.262 10.9027 14.262 10.5414V6.66953H15.3679L16.1003 5.23162H14.2644V2.888H12.1161V5.23162H11.0395L10.3096 6.66464L12.1161 6.66709V11.2786C12.1161 11.6717 12.182 11.9891 12.3114 12.2307C12.4432 12.4724 12.6215 12.658 12.8485 12.7898C13.0755 12.9216 13.3367 13.0095 13.6346 13.0534C13.9324 13.0998 14.2473 13.1218 14.5794 13.1218C14.7917 13.1218 15.0066 13.1169 15.2287 13.1072C15.4509 13.0974 15.6535 13.0779 15.8342 13.0461V11.3812C15.7341 11.4007 15.6267 11.4178 15.5168 11.4276C15.4045 11.4422 15.2898 11.4471 15.1677 11.4471Z" fill="#EDF1F3"/>
<path d="M86.1619 5.01917C84.3553 5.01917 83.6669 6.68167 83.6669 6.68167H83.6376V5.22911H81.5967V13.0461H83.745V9.76744C83.745 7.8608 84.1161 7.01368 85.7371 7.01368C86.0715 7.01368 86.3474 7.08936 86.5769 7.21386L87.4972 5.40733C87.1457 5.18273 86.7063 5.01917 86.1619 5.01917Z" fill="#EDF1F3"/>
<path d="M71.227 5.23151L69.7916 10.5242H69.7623L68.4318 5.23151H66.3445L65.0433 10.5388H65.014L63.5761 5.23151L62.1797 7.97549L63.7885 13.0484H66.01L67.343 7.80216H67.3723L68.7638 13.0484H70.9707L73.4364 5.23151H71.227Z" fill="#EDF1F3"/>
</g>
<defs>
<clipPath id="clip0_1472_41292">
<rect width="107" height="16" fill="white"/>
</clipPath>
</defs>
</svg>
