<svg width="28" height="22" viewBox="0 0 28 22" fill="none" xmlns="http://www.w3.org/2000/svg">
<path d="M27.3334 0.332001C26.2934 0.949334 24.2067 1.79067 22.9801 2.03333C22.9441 2.04267 22.9147 2.05467 22.8801 2.064C21.7961 0.994667 20.3107 0.332001 18.6667 0.332001C15.3534 0.332001 12.6667 3.01867 12.6667 6.332C12.6667 6.50667 12.6521 6.828 12.6667 6.99867C8.19608 6.99867 4.79342 4.65733 2.35341 1.66533C2.08808 2.332 1.97208 3.38533 1.97208 4.37467C1.97208 6.24267 3.43208 8.07733 5.70541 9.21467C5.28675 9.32267 4.82541 9.4 4.34541 9.4C3.57075 9.4 2.75075 9.196 2.00008 8.57733C2.00008 8.6 2.00008 8.62133 2.00008 8.64533C2.00008 11.256 4.77075 13.0333 7.23475 13.528C6.73475 13.8227 5.72675 13.852 5.23475 13.852C4.88808 13.852 3.66141 13.6933 3.33341 13.632C4.01875 15.772 6.49075 16.9747 8.84675 17.0173C7.00408 18.4627 5.72541 18.9987 1.95208 18.9987H0.666748C3.05075 20.5267 6.08675 21.6667 9.12942 21.6667C19.0361 21.6667 24.6667 14.116 24.6667 6.99867C24.6667 6.884 24.6641 6.644 24.6601 6.40267C24.6601 6.37867 24.6667 6.356 24.6667 6.332C24.6667 6.296 24.6561 6.26133 24.6561 6.22533C24.6521 6.044 24.6481 5.87467 24.6441 5.78667C25.6974 5.02667 26.6107 4.07867 27.3334 2.99867C26.3667 3.428 25.3294 3.716 24.2401 3.84667C25.3521 3.18 26.9321 1.59067 27.3334 0.332001Z" fill="white"/>
</svg>
