<svg width="32" height="32" viewBox="0 0 32 32" fill="none" xmlns="http://www.w3.org/2000/svg">
<path d="M5.73336 26.6666C5.22225 26.6666 4.78891 26.4889 4.43336 26.1333C4.0778 25.7778 3.90002 25.3444 3.90002 24.8333V7.16665C3.90002 6.65554 4.0778 6.2222 4.43336 5.86665C4.78891 5.51109 5.22225 5.33331 5.73336 5.33331H26.2667C26.7778 5.33331 27.2111 5.51109 27.5667 5.86665C27.9222 6.2222 28.1 6.65554 28.1 7.16665V24.8333C28.1 25.3444 27.9222 25.7778 27.5667 26.1333C27.2111 26.4889 26.7778 26.6666 26.2667 26.6666H5.73336ZM5.73336 25.6333H26.2667C26.4667 25.6333 26.6556 25.55 26.8334 25.3833C27.0111 25.2166 27.1 25.0333 27.1 24.8333V7.16665C27.1 6.96665 27.0111 6.78331 26.8334 6.61665C26.6556 6.44998 26.4667 6.36665 26.2667 6.36665H5.73336C5.53336 6.36665 5.34447 6.44998 5.16669 6.61665C4.98891 6.78331 4.90002 6.96665 4.90002 7.16665V24.8333C4.90002 25.0333 4.98891 25.2166 5.16669 25.3833C5.34447 25.55 5.53336 25.6333 5.73336 25.6333ZM7.33336 22H12.6667V20.6666H7.33336V22ZM19.4 19.0666L25.0667 13.4L24.1 12.4333L19.4 17.1666L17.5 15.2666L16.5667 16.2333L19.4 19.0666ZM7.33336 16.6666H12.6667V15.3333H7.33336V16.6666ZM7.33336 11.3333H12.6667V9.99998H7.33336V11.3333ZM4.90002 25.6333V6.36665V25.6333Z" fill="#00715E"/>
</svg>
