<svg width="33" height="33" viewBox="0 0 33 33" fill="none" xmlns="http://www.w3.org/2000/svg">
    <g clip-path="url(#clip0_1210_42694)">
        <path fill-rule="evenodd" clip-rule="evenodd" d="M27.5 4.125H5.5C3.9875 4.125 2.75 5.3625 2.75 6.875V26.125C2.75 27.6375 3.9875 28.875 5.5 28.875H27.5C29.0125 28.875 30.25 27.6375 30.25 26.125V6.875C30.25 5.3625 29.0125 4.125 27.5 4.125ZM27.5 26.125H5.5V6.875H27.5V26.125Z" fill="#00715E"/>
        <path fill-rule="evenodd" clip-rule="evenodd" d="M26.6887 14.3275L24.7362 12.375L20.3775 16.7338L18.4387 14.7812L16.5 16.72L20.3775 20.625L26.6887 14.3275Z" fill="#00715E"/>
        <path d="M13.75 9.625H6.875V12.375H13.75V9.625Z" fill="#00715E"/>
        <path d="M13.75 15.125H6.875V17.875H13.75V15.125Z" fill="#00715E"/>
        <path d="M13.75 20.625H6.875V23.375H13.75V20.625Z" fill="#00715E"/>
    </g>
    <defs>
        <clipPath id="clip0_1210_42694">
            <rect width="33" height="33" fill="white"/>
        </clipPath>
    </defs>
</svg>
