<svg width="32" height="32" viewBox="0 0 32 32" fill="none" xmlns="http://www.w3.org/2000/svg">
<path d="M10.3666 22.0333H11.4V15.9666H10.3666V22.0333ZM20.6 22.0333H21.6333V9.06665H20.6V22.0333ZM15.5 22.0333H16.5V18.7333H15.5V22.0333ZM15.5 15.9666H16.5V13.6H15.5V15.9666ZM7.16665 26.6666C6.65554 26.6666 6.2222 26.4889 5.86665 26.1333C5.51109 25.7778 5.33331 25.3444 5.33331 24.8333V7.16665C5.33331 6.65554 5.51109 6.2222 5.86665 5.86665C6.2222 5.51109 6.65554 5.33331 7.16665 5.33331H24.8333C25.3444 5.33331 25.7778 5.51109 26.1333 5.86665C26.4889 6.2222 26.6666 6.65554 26.6666 7.16665V24.8333C26.6666 25.3444 26.4889 25.7778 26.1333 26.1333C25.7778 26.4889 25.3444 26.6666 24.8333 26.6666H7.16665ZM7.16665 25.6333H24.8333C25.0333 25.6333 25.2166 25.55 25.3833 25.3833C25.55 25.2166 25.6333 25.0333 25.6333 24.8333V7.16665C25.6333 6.96665 25.55 6.78331 25.3833 6.61665C25.2166 6.44998 25.0333 6.36665 24.8333 6.36665H7.16665C6.96665 6.36665 6.78331 6.44998 6.61665 6.61665C6.44998 6.78331 6.36665 6.96665 6.36665 7.16665V24.8333C6.36665 25.0333 6.44998 25.2166 6.61665 25.3833C6.78331 25.55 6.96665 25.6333 7.16665 25.6333ZM6.36665 6.36665V25.6333V6.36665V6.36665Z" fill="#00715E"/>
</svg>
