<svg width="32" height="32" viewBox="0 0 32 32" fill="none" xmlns="http://www.w3.org/2000/svg">
    <g clip-path="url(#clip0_1210_42675)">
        <path d="M25.3333 4H6.66667C5.2 4 4 5.2 4 6.66667V25.3333C4 26.8 5.2 28 6.66667 28H25.3333C26.8 28 28 26.8 28 25.3333V6.66667C28 5.2 26.8 4 25.3333 4ZM25.3333 25.3333H6.66667V6.66667H25.3333V25.3333Z" fill="#00715E"/>
        <path d="M12 16H9.33333V22.6667H12V16Z" fill="#00715E"/>
        <path d="M22.6667 9.33331H20V22.6666H22.6667V9.33331Z" fill="#00715E"/>
        <path d="M17.3333 18.6667H14.6667V22.6667H17.3333V18.6667Z" fill="#00715E"/>
        <path d="M17.3333 13.3333H14.6667V16H17.3333V13.3333Z" fill="#00715E"/>
    </g>
    <defs>
        <clipPath id="clip0_1210_42675">
            <rect width="32" height="32" fill="white"/>
        </clipPath>
    </defs>
</svg>
