<svg width="32" height="32" viewBox="0 0 32 32" fill="none" xmlns="http://www.w3.org/2000/svg">
<path d="M4.5 20.7333V5.06667C4.5 4.8 4.61111 4.55556 4.83333 4.33333C5.05556 4.11111 5.28889 4 5.53333 4H21.4333C21.7 4 21.9389 4.10556 22.15 4.31667C22.3611 4.52778 22.4667 4.77778 22.4667 5.06667V15.5333C22.4667 15.8222 22.3611 16.0722 22.15 16.2833C21.9389 16.4944 21.7 16.6 21.4333 16.6H8.6L4.5 20.7333ZM9.63333 21.6333C9.38889 21.6333 9.15556 21.5278 8.93333 21.3167C8.71111 21.1056 8.6 20.8556 8.6 20.5667V18.9667H23.9667L24.8333 19.8333V8H26.4667C26.7111 8 26.9444 8.11111 27.1667 8.33333C27.3889 8.55556 27.5 8.8 27.5 9.06667V25.7333L23.4 21.6333H9.63333ZM21.4333 5.03333H5.53333V18.2333L8.16667 15.6H21.4333V5.03333ZM5.53333 5.03333V18.2333V5.03333Z" fill="#00715E"/>
</svg>
