<svg width="32" height="32" viewBox="0 0 32 32" fill="none" xmlns="http://www.w3.org/2000/svg">
<path d="M12 26.6667H6.36665C6.09998 26.6667 5.86109 26.5611 5.64998 26.35C5.43887 26.1389 5.33331 25.9 5.33331 25.6334V20C6.04442 19.7334 6.63331 19.2945 7.09998 18.6834C7.56665 18.0722 7.79998 17.3889 7.79998 16.6334C7.79998 15.8556 7.56665 15.1667 7.09998 14.5667C6.63331 13.9667 6.04442 13.5222 5.33331 13.2334V7.60002C5.33331 7.33335 5.43887 7.09446 5.64998 6.88335C5.86109 6.67224 6.09998 6.56669 6.36665 6.56669H11.9666C12.3 5.83335 12.7666 5.25002 13.3666 4.81669C13.9666 4.38335 14.6444 4.16669 15.4 4.16669C16.1778 4.16669 16.8611 4.38335 17.45 4.81669C18.0389 5.25002 18.5111 5.83335 18.8666 6.56669H24.4C24.6666 6.56669 24.9055 6.67224 25.1166 6.88335C25.3278 7.09446 25.4333 7.33335 25.4333 7.60002V13.1334C26.1666 13.4889 26.7444 13.9722 27.1666 14.5834C27.5889 15.1945 27.8 15.8778 27.8 16.6334C27.8 17.4111 27.5889 18.0889 27.1666 18.6667C26.7444 19.2445 26.1666 19.7111 25.4333 20.0667V25.6334C25.4333 25.9 25.3278 26.1389 25.1166 26.35C24.9055 26.5611 24.6666 26.6667 24.4 26.6667H18.7666C18.4778 25.8889 18.0222 25.2834 17.4 24.85C16.7778 24.4167 16.1 24.2 15.3666 24.2C14.6555 24.2 13.9889 24.4167 13.3666 24.85C12.7444 25.2834 12.2889 25.8889 12 26.6667ZM6.36665 25.6334H11.4666C11.8444 24.8111 12.3889 24.1945 13.1 23.7834C13.8111 23.3722 14.5666 23.1667 15.3666 23.1667C16.1889 23.1667 16.9555 23.3722 17.6666 23.7834C18.3778 24.1945 18.9222 24.8111 19.3 25.6334H24.4V19.2H24.4666C25.2444 19.0889 25.8222 18.7889 26.2 18.3C26.5778 17.8111 26.7666 17.2667 26.7666 16.6667C26.7666 16.0667 26.5778 15.5167 26.2 15.0167C25.8222 14.5167 25.2444 14.2111 24.4666 14.1H24.4V7.60002H17.9666V7.46669C17.8555 6.71113 17.5555 6.13891 17.0666 5.75002C16.5778 5.36113 16.0222 5.16669 15.4 5.16669C14.8 5.16669 14.2555 5.36113 13.7666 5.75002C13.2778 6.13891 12.9778 6.71113 12.8666 7.46669V7.60002H6.36665V12.6334C7.14442 12.9889 7.74998 13.5278 8.18331 14.25C8.61665 14.9722 8.83331 15.7667 8.83331 16.6334C8.83331 17.4778 8.61665 18.2667 8.18331 19C7.74998 19.7334 7.14442 20.2667 6.36665 20.6V25.6334Z" fill="#00715E"/>
</svg>
