<svg width="32" height="32" viewBox="0 0 32 32" fill="none" xmlns="http://www.w3.org/2000/svg">
<g clip-path="url(#clip0_1202_41806)">
<path d="M20.0001 5.33329V14.6666H6.89341L6.10675 15.4533L5.33341 16.2266V5.33329H20.0001ZM21.3334 2.66663H4.00008C3.26675 2.66663 2.66675 3.26663 2.66675 3.99996V22.6666L8.00008 17.3333H21.3334C22.0667 17.3333 22.6667 16.7333 22.6667 16V3.99996C22.6667 3.26663 22.0667 2.66663 21.3334 2.66663ZM28.0001 7.99996H25.3334V20H8.00008V22.6666C8.00008 23.4 8.60008 24 9.33341 24H24.0001L29.3334 29.3333V9.33329C29.3334 8.59996 28.7334 7.99996 28.0001 7.99996Z" fill="#00715E"/>
</g>
<defs>
<clipPath id="clip0_1202_41806">
<rect width="32" height="32" fill="white"/>
</clipPath>
</defs>
</svg>
