<svg width="33" height="33" viewBox="0 0 33 33" fill="none" xmlns="http://www.w3.org/2000/svg">
    <g clip-path="url(#clip0_1210_42687)">
        <path fill-rule="evenodd" clip-rule="evenodd" d="M16.5 2.75C8.91 2.75 2.75 8.91 2.75 16.5C2.75 24.09 8.91 30.25 16.5 30.25C24.09 30.25 30.25 24.09 30.25 16.5C30.25 8.91 24.09 2.75 16.5 2.75ZM16.5 27.5C10.4363 27.5 5.5 22.5637 5.5 16.5C5.5 10.4363 10.4363 5.5 16.5 5.5C22.5637 5.5 27.5 10.4363 27.5 16.5C27.5 22.5637 22.5637 27.5 16.5 27.5Z" fill="#00715E"/>
        <path fill-rule="evenodd" clip-rule="evenodd" d="M18.5487 15.6475C19.14 13.97 18.7825 12.0175 17.435 10.67C15.9087 9.14377 13.5987 8.88252 11.7975 9.85877L15.0287 13.09L13.09 15.0288L9.85874 11.7975C8.88249 13.6125 9.14374 15.9088 10.67 17.435C12.0175 18.7825 13.97 19.14 15.6475 18.5488L20.3362 23.2375C20.6112 23.5125 21.0375 23.5125 21.3125 23.2375L23.2375 21.3125C23.5125 21.0375 23.5125 20.6113 23.2375 20.3363L18.5487 15.6475Z" fill="#00715E"/>
    </g>
    <defs>
        <clipPath id="clip0_1210_42687">
            <rect width="33" height="33" fill="white"/>
        </clipPath>
    </defs>
</svg>
