<svg width="33" height="33" viewBox="0 0 33 33" fill="none" xmlns="http://www.w3.org/2000/svg">
<g clip-path="url(#clip0_1378_40722)">
<path d="M14.4375 6.1875C14.8225 6.1875 15.125 6.49 15.125 6.875V9.625H23.375V17.875H26.125C26.51 17.875 26.8125 18.1775 26.8125 18.5625C26.8125 18.9475 26.51 19.25 26.125 19.25H23.375V27.5H20.46C19.525 25.0938 17.1738 23.375 14.4375 23.375C11.7012 23.375 9.35 25.0938 8.415 27.5H5.5V24.585C7.90625 23.65 9.625 21.2988 9.625 18.5625C9.625 15.8262 7.92 13.475 5.51375 12.54L5.5 9.625H13.75V6.875C13.75 6.49 14.0525 6.1875 14.4375 6.1875ZM14.4375 3.4375C12.54 3.4375 11 4.9775 11 6.875H5.5C3.9875 6.875 2.76375 8.1125 2.76375 9.625V14.85H3.1625C5.21125 14.85 6.875 16.5137 6.875 18.5625C6.875 20.6113 5.21125 22.275 3.1625 22.275H2.75V27.5C2.75 29.0125 3.9875 30.25 5.5 30.25H10.725V29.8375C10.725 27.7888 12.3887 26.125 14.4375 26.125C16.4863 26.125 18.15 27.7888 18.15 29.8375V30.25H23.375C24.8875 30.25 26.125 29.0125 26.125 27.5V22C28.0225 22 29.5625 20.46 29.5625 18.5625C29.5625 16.665 28.0225 15.125 26.125 15.125V9.625C26.125 8.1125 24.8875 6.875 23.375 6.875H17.875C17.875 4.9775 16.335 3.4375 14.4375 3.4375Z" fill="#00715E"/>
</g>
<defs>
<clipPath id="clip0_1378_40722">
<rect width="33" height="33" fill="white"/>
</clipPath>
</defs>
</svg>
