<svg width="32" height="32" viewBox="0 0 32 32" fill="none" xmlns="http://www.w3.org/2000/svg">
    <g clip-path="url(#clip0_1353_38663)">
        <path d="M20 5.33335V14.6667H6.89335L6.10669 15.4534L5.33335 16.2267V5.33335H20ZM21.3334 2.66669H4.00002C3.26669 2.66669 2.66669 3.26669 2.66669 4.00002V22.6667L8.00002 17.3334H21.3334C22.0667 17.3334 22.6667 16.7334 22.6667 16V4.00002C22.6667 3.26669 22.0667 2.66669 21.3334 2.66669ZM28 8.00002H25.3334V20H8.00002V22.6667C8.00002 23.4 8.60002 24 9.33335 24H24L29.3334 29.3334V9.33335C29.3334 8.60002 28.7334 8.00002 28 8.00002Z"
              fill="#00715E"/>
    </g>
    <defs>
        <clipPath id="clip0_1353_38663">
            <rect width="32" height="32" fill="white"/>
        </clipPath>
    </defs>
</svg>
