<?xml version="1.0" encoding="UTF-8"?><svg id="Color" xmlns="http://www.w3.org/2000/svg" viewBox="0 0 720 225"><defs><style>.cls-1{fill:#004876;}.cls-2{fill:#9fa6ab;}.cls-3{fill:#0077a8;}.cls-4{fill:#231f20;}</style></defs><g id="Horizontal"><g><g><path class="cls-2" d="M201.29,169.68c.13,1.28,.67,2.37,2.05,2.37s1.91-.8,1.91-2.05-.59-1.99-2.43-2.89c-2.37-1.11-3.33-2.12-3.33-4.21s1.4-3.73,3.88-3.73c3.04,0,3.82,2.1,3.86,3.88h-2.16c-.08-.75-.29-2.12-1.74-2.12-1.13,0-1.64,.75-1.64,1.78,0,1.13,.5,1.68,2.22,2.47,2.52,1.17,3.59,2.33,3.59,4.63s-1.34,4-4.21,4c-3.12,0-4.09-2.01-4.19-4.13h2.2Z"/><path class="cls-2" d="M209.36,159.37h2.2v5.77h3.84v-5.77h2.2v14.21h-2.2v-6.54h-3.84v6.54h-2.2v-14.21Z"/><path class="cls-2" d="M222.06,169.68l-.82,3.9h-2.2l3.33-14.21h2.85l3.4,14.21h-2.31l-.84-3.9h-3.42Zm3.02-1.93c-.63-2.98-1.09-5.05-1.3-6.33h-.06c-.17,1.3-.67,3.56-1.26,6.33h2.62Z"/><path class="cls-2" d="M229.97,159.37h4.07c2.31,0,3.98,1.41,3.98,4.15s-1.53,4.15-4.19,4.15h-1.66v5.91h-2.2v-14.21Zm2.2,6.52h1.4c1.51,0,2.22-.78,2.22-2.41,0-1.47-.75-2.29-2.08-2.29h-1.55v4.7Z"/><path class="cls-2" d="M241.94,159.37v14.21h-2.2v-14.21h2.2Z"/><path class="cls-2" d="M244.56,173.58v-14.21h2.56c3.27,8.53,3.84,9.98,4,10.65h.02c-.1-1.78-.13-3.88-.13-6.21v-4.45h1.99v14.21h-2.45c-3.38-9.04-3.92-10.48-4.09-11.11h-.02c.1,1.76,.1,3.94,.1,6.5v4.61h-1.99Z"/><path class="cls-2" d="M263.72,173.58h-1.7c-.04-.42-.08-.78-.1-1.32-.57,1.07-1.47,1.55-2.83,1.55-3,0-3.98-2.83-3.98-7.27,0-5.07,1.66-7.38,4.65-7.38,3.71,0,3.92,3.21,3.96,4.05h-2.18c-.04-.54-.17-2.16-1.84-2.16-1.76,0-2.31,2.24-2.31,5.49s.44,5.41,2.18,5.41c1.55,0,1.97-1.24,1.97-3.63v-.75h-2.1v-1.91h4.28v7.92Z"/><path class="cls-2" d="M280.12,165.03l-2.62,4.86,3,3.69h-2.75l-1.38-1.72c-.82,1.22-1.68,1.91-3.35,1.91-2.33,0-3.56-1.55-3.56-3.9,0-1.64,.61-2.68,2.22-3.88-.82-1.11-1.3-2.03-1.3-3.4,0-1.66,.99-3.4,3.25-3.4,2.05,0,3.17,1.38,3.17,3.15s-.71,2.64-2.37,3.77l1.84,2.26,1.7-3.35h2.16Zm-4.95,5.35l-2.5-3.1c-.75,.67-1.07,1.32-1.07,2.39,0,1.38,.59,2.22,1.61,2.22,.8,0,1.3-.42,1.95-1.51Zm-2.75-7.88c0,.82,.27,1.45,1.01,2.39,1.07-.8,1.36-1.47,1.36-2.47,0-.84-.29-1.51-1.2-1.51-.78,0-1.17,.65-1.17,1.59Z"/><path class="cls-2" d="M287.5,169.68c.13,1.28,.67,2.37,2.05,2.37s1.91-.8,1.91-2.05-.59-1.99-2.43-2.89c-2.37-1.11-3.33-2.12-3.33-4.21s1.4-3.73,3.88-3.73c3.04,0,3.82,2.1,3.86,3.88h-2.16c-.08-.75-.29-2.12-1.74-2.12-1.13,0-1.64,.75-1.64,1.78,0,1.13,.5,1.68,2.22,2.47,2.52,1.17,3.58,2.33,3.58,4.63s-1.34,4-4.21,4c-3.12,0-4.09-2.01-4.19-4.13h2.2Z"/><path class="cls-2" d="M297.48,161.32h-3.08v-1.95h8.37v1.95h-3.08v12.26h-2.2v-12.26Z"/><path class="cls-2" d="M306.39,167.36v6.23h-2.18v-14.21h4.13c2.52,0,3.9,1.36,3.9,3.82,0,2.08-1.09,2.98-1.87,3.27,1.17,.5,1.66,1.51,1.66,3.56v.57c0,1.51,.06,2.24,.19,3h-2.14c-.21-.65-.23-1.82-.23-3.02v-.5c0-1.95-.42-2.7-2.14-2.7h-1.32Zm0-1.8h1.43c1.59,0,2.2-.78,2.2-2.29,0-1.28-.61-2.08-1.99-2.08h-1.64v4.36Z"/><path class="cls-2" d="M321.09,167.11h-4.61v4.57h5.16l-.27,1.91h-7.07v-14.21h7.02v1.95h-4.84v3.86h4.61v1.93Z"/><path class="cls-2" d="M323.27,173.58v-14.21h2.56c3.27,8.53,3.84,9.98,4,10.65h.02c-.1-1.78-.13-3.88-.13-6.21v-4.45h1.99v14.21h-2.45c-3.38-9.04-3.92-10.48-4.09-11.11h-.02c.1,1.76,.1,3.94,.1,6.5v4.61h-1.99Z"/><path class="cls-2" d="M342.43,173.58h-1.7c-.04-.42-.08-.78-.1-1.32-.57,1.07-1.47,1.55-2.83,1.55-3,0-3.98-2.83-3.98-7.27,0-5.07,1.66-7.38,4.65-7.38,3.71,0,3.92,3.21,3.96,4.05h-2.18c-.04-.54-.17-2.16-1.84-2.16-1.76,0-2.31,2.24-2.31,5.49s.44,5.41,2.18,5.41c1.55,0,1.97-1.24,1.97-3.63v-.75h-2.1v-1.91h4.28v7.92Z"/><path class="cls-2" d="M346.5,161.32h-3.08v-1.95h8.37v1.95h-3.08v12.26h-2.2v-12.26Z"/><path class="cls-2" d="M353.23,159.37h2.2v5.77h3.84v-5.77h2.2v14.21h-2.2v-6.54h-3.84v6.54h-2.2v-14.21Z"/><path class="cls-2" d="M370.86,167.11h-4.61v4.57h5.16l-.27,1.91h-7.07v-14.21h7.02v1.95h-4.84v3.86h4.61v1.93Z"/><path class="cls-2" d="M373.04,173.58v-14.21h2.56c3.27,8.53,3.84,9.98,4,10.65h.02c-.1-1.78-.13-3.88-.13-6.21v-4.45h1.99v14.21h-2.45c-3.38-9.04-3.92-10.48-4.09-11.11h-.02c.1,1.76,.1,3.94,.1,6.5v4.61h-1.99Z"/><path class="cls-2" d="M386.29,159.37v14.21h-2.2v-14.21h2.2Z"/><path class="cls-2" d="M388.91,173.58v-14.21h2.56c3.27,8.53,3.84,9.98,4,10.65h.02c-.1-1.78-.13-3.88-.13-6.21v-4.45h1.99v14.21h-2.45c-3.38-9.04-3.92-10.48-4.09-11.11h-.02c.11,1.76,.11,3.94,.11,6.5v4.61h-1.99Z"/><path class="cls-2" d="M408.08,173.58h-1.7c-.04-.42-.08-.78-.1-1.32-.57,1.07-1.47,1.55-2.83,1.55-3,0-3.98-2.83-3.98-7.27,0-5.07,1.66-7.38,4.65-7.38,3.71,0,3.92,3.21,3.96,4.05h-2.18c-.04-.54-.17-2.16-1.85-2.16-1.76,0-2.31,2.24-2.31,5.49s.44,5.41,2.18,5.41c1.55,0,1.97-1.24,1.97-3.63v-.75h-2.1v-1.91h4.28v7.92Z"/><path class="cls-2" d="M421.14,167.11h-4.61v4.57h5.16l-.27,1.91h-7.07v-14.21h7.02v1.95h-4.84v3.86h4.61v1.93Z"/><path class="cls-2" d="M423.32,159.37h3.5c3.54,0,4.97,2.33,4.97,6.79,0,4.8-1.34,7.42-5.16,7.42h-3.31v-14.21Zm2.22,12.39h1.05c2.18,0,2.91-1.7,2.91-5.58,0-3.44-.73-4.95-2.89-4.95h-1.07v10.52Z"/><path class="cls-2" d="M435.96,159.37v9.85c0,1.3,.36,2.72,2.03,2.72s1.99-1.19,1.99-2.72v-9.85h2.22v9.9c0,2.56-.99,4.55-4.26,4.55s-4.19-1.87-4.19-4.53v-9.92h2.2Z"/><path class="cls-2" d="M452.67,169.52c-.06,.75-.38,4.3-4.13,4.3-3.96,0-4.36-3.71-4.36-7.38,0-4.44,1.26-7.28,4.51-7.28,3.65,0,3.92,3.23,3.96,4.28h-2.2c-.02-.48-.08-2.39-1.78-2.39-1.82,0-2.2,2.35-2.2,5.43,0,2.79,.29,5.47,2.12,5.47,1.64,0,1.82-1.82,1.89-2.43h2.2Z"/><path class="cls-2" d="M456.57,169.68l-.82,3.9h-2.2l3.33-14.21h2.85l3.4,14.21h-2.31l-.84-3.9h-3.42Zm3.02-1.93c-.63-2.98-1.09-5.05-1.3-6.33h-.06c-.17,1.3-.67,3.56-1.26,6.33h2.62Z"/><path class="cls-2" d="M465.29,161.32h-3.08v-1.95h8.37v1.95h-3.08v12.26h-2.2v-12.26Z"/><path class="cls-2" d="M474.22,159.37v14.21h-2.2v-14.21h2.2Z"/><path class="cls-2" d="M485.27,166.37c0,5.07-1.32,7.44-4.53,7.44-3,0-4.4-2.33-4.4-7.46s1.63-7.19,4.51-7.19c3.04,0,4.42,2.31,4.42,7.21Zm-6.67-.04c0,3.61,.61,5.62,2.2,5.62s2.2-1.91,2.2-5.6-.59-5.3-2.2-5.3-2.2,1.87-2.2,5.28Z"/><path class="cls-2" d="M487.37,173.58v-14.21h2.56c3.27,8.53,3.84,9.98,4,10.65h.02c-.1-1.78-.13-3.88-.13-6.21v-4.45h1.99v14.21h-2.45c-3.38-9.04-3.92-10.48-4.09-11.11h-.02c.11,1.76,.11,3.94,.11,6.5v4.61h-1.99Z"/><path class="cls-2" d="M512.49,165.03l-2.62,4.86,3,3.69h-2.75l-1.38-1.72c-.82,1.22-1.68,1.91-3.35,1.91-2.33,0-3.56-1.55-3.56-3.9,0-1.64,.61-2.68,2.22-3.88-.82-1.11-1.3-2.03-1.3-3.4,0-1.66,.99-3.4,3.25-3.4,2.05,0,3.17,1.38,3.17,3.15s-.71,2.64-2.37,3.77l1.84,2.26,1.7-3.35h2.16Zm-4.95,5.35l-2.5-3.1c-.75,.67-1.07,1.32-1.07,2.39,0,1.38,.59,2.22,1.61,2.22,.8,0,1.3-.42,1.95-1.51Zm-2.75-7.88c0,.82,.27,1.45,1.01,2.39,1.07-.8,1.36-1.47,1.36-2.47,0-.84-.29-1.51-1.19-1.51-.78,0-1.17,.65-1.17,1.59Z"/><path class="cls-2" d="M520.18,173.58l-2.73-14.21h2.35c.67,3.94,1.42,8.72,1.61,11.13h.02c.38-2.47,1.55-7.92,2.14-11.13h2.01c.57,2.96,1.74,8.62,2.05,11.03h.04c.31-2.81,1.34-8.13,1.78-11.03h2.2l-2.96,14.21h-2.22c-.57-3.06-1.63-8.09-1.99-10.63h-.02c-.38,2.62-1.49,7.74-2.08,10.63h-2.22Z"/><path class="cls-2" d="M541.55,166.37c0,5.07-1.32,7.44-4.53,7.44-3,0-4.4-2.33-4.4-7.46s1.63-7.19,4.51-7.19c3.04,0,4.42,2.31,4.42,7.21Zm-6.67-.04c0,3.61,.61,5.62,2.2,5.62s2.2-1.91,2.2-5.6-.59-5.3-2.2-5.3-2.2,1.87-2.2,5.28Z"/><path class="cls-2" d="M545.82,167.36v6.23h-2.18v-14.21h4.13c2.52,0,3.9,1.36,3.9,3.82,0,2.08-1.09,2.98-1.87,3.27,1.17,.5,1.66,1.51,1.66,3.56v.57c0,1.51,.06,2.24,.19,3h-2.14c-.21-.65-.23-1.82-.23-3.02v-.5c0-1.95-.42-2.7-2.14-2.7h-1.32Zm0-1.8h1.43c1.59,0,2.2-.78,2.2-2.29,0-1.28-.61-2.08-1.99-2.08h-1.63v4.36Z"/><path class="cls-2" d="M553.73,159.37h2.18v6.6c.86-1.34,2.85-4.68,4.11-6.6h2.54l-3.82,5.62,3.9,8.6h-2.47l-2.91-6.75-1.34,1.84v4.91h-2.18v-14.21Z"/><path class="cls-2" d="M563.62,159.37h7.04v1.95h-4.86v4.03h4.57v1.91h-4.57v6.33h-2.18v-14.21Z"/><path class="cls-2" d="M580.9,166.37c0,5.07-1.32,7.44-4.53,7.44-3,0-4.4-2.33-4.4-7.46s1.63-7.19,4.51-7.19c3.04,0,4.42,2.31,4.42,7.21Zm-6.67-.04c0,3.61,.61,5.62,2.2,5.62s2.2-1.91,2.2-5.6-.59-5.3-2.2-5.3-2.2,1.87-2.2,5.28Z"/><path class="cls-2" d="M585.18,167.36v6.23h-2.18v-14.21h4.13c2.52,0,3.9,1.36,3.9,3.82,0,2.08-1.09,2.98-1.87,3.27,1.17,.5,1.66,1.51,1.66,3.56v.57c0,1.51,.06,2.24,.19,3h-2.14c-.21-.65-.23-1.82-.23-3.02v-.5c0-1.95-.42-2.7-2.14-2.7h-1.32Zm0-1.8h1.43c1.59,0,2.2-.78,2.2-2.29,0-1.28-.61-2.08-1.99-2.08h-1.63v4.36Z"/><path class="cls-2" d="M601.17,169.52c-.06,.75-.38,4.3-4.13,4.3-3.96,0-4.36-3.71-4.36-7.38,0-4.44,1.26-7.28,4.51-7.28,3.65,0,3.92,3.23,3.96,4.28h-2.2c-.02-.48-.08-2.39-1.78-2.39-1.82,0-2.2,2.35-2.2,5.43,0,2.79,.29,5.47,2.12,5.47,1.64,0,1.82-1.82,1.89-2.43h2.2Z"/><path class="cls-2" d="M609.68,167.11h-4.61v4.57h5.16l-.27,1.91h-7.07v-14.21h7.02v1.95h-4.84v3.86h4.61v1.93Z"/><path class="cls-2" d="M617.25,169.68c.13,1.28,.67,2.37,2.05,2.37s1.91-.8,1.91-2.05-.59-1.99-2.43-2.89c-2.37-1.11-3.33-2.12-3.33-4.21s1.4-3.73,3.88-3.73c3.04,0,3.82,2.1,3.86,3.88h-2.16c-.08-.75-.29-2.12-1.74-2.12-1.13,0-1.63,.75-1.63,1.78,0,1.13,.5,1.68,2.22,2.47,2.52,1.17,3.58,2.33,3.58,4.63s-1.34,4-4.21,4c-3.12,0-4.09-2.01-4.19-4.13h2.2Z"/><path class="cls-2" d="M627.57,173.58v-5.16c0-.17-.02-.29-.08-.42l-3.58-8.64h2.45c.86,2.31,1.97,5.24,2.39,6.71,.52-1.61,1.64-4.53,2.41-6.71h2.33l-3.63,8.66c-.04,.08-.06,.23-.06,.44v5.12h-2.22Z"/><path class="cls-2" d="M635.98,169.68c.13,1.28,.67,2.37,2.05,2.37s1.91-.8,1.91-2.05-.59-1.99-2.43-2.89c-2.37-1.11-3.33-2.12-3.33-4.21s1.4-3.73,3.88-3.73c3.04,0,3.82,2.1,3.86,3.88h-2.16c-.08-.75-.29-2.12-1.74-2.12-1.13,0-1.63,.75-1.63,1.78,0,1.13,.5,1.68,2.22,2.47,2.52,1.17,3.58,2.33,3.58,4.63s-1.34,4-4.21,4c-3.12,0-4.09-2.01-4.19-4.13h2.2Z"/><path class="cls-2" d="M645.96,161.32h-3.08v-1.95h8.37v1.95h-3.08v12.26h-2.2v-12.26Z"/><path class="cls-2" d="M659.48,167.11h-4.61v4.57h5.16l-.27,1.91h-7.07v-14.21h7.02v1.95h-4.84v3.86h4.61v1.93Z"/><path class="cls-2" d="M670.28,168.03c0-2.5,.04-5.22,.08-6.79h-.06c-.5,2.6-1.45,7.78-2.45,12.35h-2.01c-.75-4.15-1.76-9.69-2.22-12.39h-.08c.08,1.66,.15,4.7,.15,7.13v5.26h-2.03v-14.21h3.29c.88,4.11,1.7,8.58,2.01,10.59h.02c.27-1.8,1.32-6.65,2.2-10.59h3.23v14.21h-2.12v-5.56Z"/><path class="cls-2" d="M676.17,169.68c.13,1.28,.67,2.37,2.05,2.37s1.91-.8,1.91-2.05-.59-1.99-2.43-2.89c-2.37-1.11-3.33-2.12-3.33-4.21s1.4-3.73,3.88-3.73c3.04,0,3.82,2.1,3.86,3.88h-2.16c-.08-.75-.29-2.12-1.74-2.12-1.13,0-1.63,.75-1.63,1.78,0,1.13,.5,1.68,2.22,2.47,2.52,1.17,3.58,2.33,3.58,4.63s-1.34,4-4.21,4c-3.12,0-4.09-2.01-4.19-4.13h2.2Z"/></g><rect class="cls-2" x="199.09" y="145.03" width="483.29" height=".5"/><g id="Wordmark"><g><polygon class="cls-1" points="216.52 75.45 203.39 75.45 203.39 89.92 217.98 89.92 217.34 94.18 198.61 94.18 198.61 54.55 217.17 54.55 217.17 58.87 203.39 58.87 203.39 71.13 216.52 71.13 216.52 75.45"/><path class="cls-1" d="M240.45,52.63v33.79c0,3.04,0,6.01,.06,7.76h-4.61c-.12-.76-.17-2.63-.17-3.85-.93,2.51-2.8,4.38-6.95,4.38-6.18,0-8.75-5.31-8.75-15.7,0-9.4,3.38-15.06,9.75-15.06,3.74,0,5.25,1.58,5.9,2.98v-14.3h4.78Zm-10.21,37.88c4.38,0,5.54-3.73,5.54-11.62,0-8.29-1.11-10.74-5.25-10.74-3.38,0-5.6,2.92-5.6,10.92s1.81,11.44,5.31,11.44"/><path class="cls-1" d="M265.31,85.95c0,3.86,0,6.77,.06,8.23h-4.61c-.11-.88-.17-2.1-.23-3.79-1.11,2.86-3.5,4.32-6.94,4.32-3.62,0-7.41-1.52-7.41-8.87v-21.36h4.79v20.25c0,3.62,.99,5.78,4.2,5.78s5.31-1.87,5.31-7.94v-18.09h4.84v21.48Z"/><path class="cls-1" d="M289.29,84.9c-.12,1.75-.76,9.81-9.63,9.81-7.94,0-10.04-6.83-10.04-15.53,0-8.23,2.68-15.23,10.39-15.23,8.87,0,9.22,8.05,9.28,9.51h-4.9c-.06-1.17-.41-5.43-4.38-5.43s-5.49,4.43-5.49,11.14c0,7.18,1.46,11.44,5.25,11.44,4.09,0,4.55-4.09,4.79-5.72h4.73Z"/><path class="cls-1" d="M311,88.7c0,1.81,.12,4.49,.24,5.48h-4.38c-.18-.64-.29-2.16-.29-3.27-1.11,2.34-3.27,3.8-6.95,3.8-5.72,0-7.82-4.5-7.82-8.64,0-5.55,3.79-9.57,11.49-9.57,1.34,0,2.16,0,2.98,.12v-3.85c0-2.16-.41-4.96-4.2-4.96-4.09,0-4.38,2.92-4.55,4.9h-4.55c.12-4.32,2.1-8.76,9.28-8.76,5.89,0,8.75,2.86,8.75,8.35v16.4Zm-4.61-8.41c-.7-.12-1.52-.12-2.8-.12-5.02,0-7,2.4-7,5.55,0,2.51,1.29,4.96,4.38,4.96,4.14,0,5.43-2.98,5.43-8.87v-1.52Z"/><path class="cls-1" d="M313.21,64.47h4.14v-7.82h4.73v7.82h5.08v4.03h-5.08v18.91c0,1.98,.47,3.15,2.68,3.15,.7,0,1.46,0,1.98-.11v3.62c-1.05,.41-2.63,.52-3.62,.52-3.73,0-5.78-1.46-5.78-6.3v-19.79h-4.14v-4.03Z"/><path class="cls-1" d="M330.08,52.63h4.79v6.3h-4.79v-6.3Zm0,11.85h4.79v29.71h-4.79v-29.71Z"/><path class="cls-1" d="M360.07,79c0,10.51-3.62,15.7-10.44,15.7s-10.39-5.02-10.39-15.58,4.09-15.17,10.62-15.17,10.21,5.08,10.21,15.06m-15.93,.12c0,7.76,1.81,11.5,5.54,11.5s5.49-3.79,5.49-11.5-1.75-11.03-5.49-11.03-5.54,3.33-5.54,11.03"/><path class="cls-1" d="M364.45,73.69c0-6.13-.06-7.82-.06-9.22h4.61c.06,.7,.17,1.93,.17,3.74,.94-2.16,2.98-4.26,6.95-4.26,4.38,0,7.65,2.57,7.65,9.05v21.19h-4.85v-20.19c0-3.5-1.05-5.83-4.32-5.83-3.74,0-5.37,2.39-5.37,8.23v17.8h-4.78v-20.49Z"/><path class="cls-3" d="M396.31,83.62c.35,3.97,2.16,7.12,6.36,7.12s6.01-2.22,6.01-6.48c0-4.03-1.69-6.19-7-8.75-6.3-2.98-9.05-5.78-9.05-11.5s3.62-9.98,10.21-9.98c7.88,0,9.98,5.6,10.1,10.33h-4.78c-.23-1.98-.82-6.3-5.49-6.3-3.62,0-5.14,2.45-5.14,5.49,0,3.62,1.58,5.37,6.48,7.65,6.94,3.33,9.63,6.59,9.63,12.67s-3.62,10.91-11.09,10.91c-8.17,0-10.79-5.31-11.09-11.15h4.84Z"/><path class="cls-3" d="M420.18,64.47c3.03,11.84,5.43,20.6,5.78,23.87h.06c.58-3.56,3.15-13.48,5.84-23.87h4.9l-8.7,31.17c-2.39,8.81-4.9,9.86-9.1,9.86-.7,0-1.63-.06-2.22-.17v-4.2c.41,.06,1.28,.11,1.98,.11,2.98,0,3.85-1.93,4.96-6.48l-8.76-30.29h5.25Z"/><path class="cls-3" d="M442.52,85.54c.18,2.98,1.75,5.31,5.02,5.31,3.04,0,4.49-1.81,4.49-4.38,0-2.86-1.4-4.26-5.25-5.72-6.3-2.39-8.05-4.67-8.05-8.81s2.45-8,8.7-8c6.89,0,8.75,4.67,8.81,8.64h-4.67c-.06-1.34-.35-4.78-4.26-4.78-2.62,0-3.85,1.63-3.85,3.85s1.05,3.38,5.02,4.9c5.84,2.22,8.41,4.38,8.41,9.46,0,5.49-3.44,8.7-9.57,8.7s-9.4-3.79-9.51-9.16h4.73Z"/><path class="cls-3" d="M457.75,64.47h4.14v-7.82h4.73v7.82h5.08v4.03h-5.08v18.91c0,1.98,.46,3.15,2.68,3.15,.7,0,1.46,0,1.98-.11v3.62c-1.05,.41-2.62,.52-3.62,.52-3.73,0-5.78-1.46-5.78-6.3v-19.79h-4.14v-4.03Z"/><path class="cls-3" d="M477.71,80.29c0,5.43,.88,10.39,5.43,10.39s5.02-4.14,5.14-5.08h4.67c-.12,.81-.88,9.1-9.87,9.1s-10.16-8-10.16-15.41c0-9.4,3.27-15.35,10.39-15.35,7.94,0,9.87,6.48,9.87,13.95,0,.64-.06,1.75-.12,2.4h-15.35Zm10.68-3.68c0-4.67-.93-8.58-5.13-8.58-5.14,0-5.37,6.54-5.43,8.58h10.56Z"/><path class="cls-3" d="M497.44,73.4c0-5.43,0-7.53-.06-8.93h4.62c.11,.82,.17,2.33,.17,3.62,1.17-2.51,3.33-4.14,6.59-4.14s5.25,1.4,6.13,4.38c1.11-2.33,3.33-4.38,7.24-4.38s7.24,1.87,7.24,8.7v21.54h-4.73v-20.72c0-2.92-.88-5.31-3.97-5.31-3.62,0-4.84,3.15-4.84,7.06v18.97h-4.73v-20.6c0-3.5-1.17-5.37-3.97-5.37-3.38,0-4.9,2.98-4.9,7.35v18.62h-4.79v-20.78Z"/><path class="cls-3" d="M537.76,85.54c.17,2.98,1.75,5.31,5.02,5.31,3.04,0,4.49-1.81,4.49-4.38,0-2.86-1.4-4.26-5.25-5.72-6.3-2.39-8.06-4.67-8.06-8.81s2.45-8,8.7-8c6.89,0,8.76,4.67,8.81,8.64h-4.67c-.05-1.34-.35-4.78-4.26-4.78-2.62,0-3.85,1.63-3.85,3.85s1.05,3.38,5.02,4.9c5.83,2.22,8.4,4.38,8.4,9.46,0,5.49-3.44,8.7-9.57,8.7s-9.4-3.79-9.51-9.16h4.73Z"/><path class="cls-1" d="M581.88,83.09c-.17,2.27-1.11,11.67-10.97,11.67-10.68,0-11.61-10.91-11.61-20.6,0-11.79,3.21-20.19,12.08-20.19,9.69,0,10.33,8.98,10.39,11.55h-4.84c-.12-1.35-.29-7.24-5.66-7.24-5.9,0-6.89,7.94-6.89,15.87s.93,16.4,6.65,16.4c5.08,0,5.78-5.55,5.95-7.47h4.9Z"/><path class="cls-1" d="M589.64,80.29c0,5.43,.87,10.39,5.43,10.39s5.02-4.14,5.14-5.08h4.67c-.12,.81-.87,9.1-9.86,9.1s-10.16-8-10.16-15.41c0-9.4,3.27-15.35,10.39-15.35,7.94,0,9.86,6.48,9.86,13.95,0,.64-.06,1.75-.11,2.4h-15.35Zm10.68-3.68c0-4.67-.93-8.58-5.14-8.58-5.14,0-5.37,6.54-5.43,8.58h10.57Z"/><path class="cls-1" d="M609.36,73.69c0-6.13-.06-7.82-.06-9.22h4.61c.06,.7,.17,1.93,.17,3.74,.94-2.16,2.98-4.26,6.95-4.26,4.38,0,7.64,2.57,7.64,9.05v21.19h-4.84v-20.19c0-3.5-1.05-5.83-4.32-5.83-3.74,0-5.37,2.39-5.37,8.23v17.8h-4.78v-20.49Z"/><path class="cls-1" d="M630.83,64.47h4.14v-7.82h4.73v7.82h5.08v4.03h-5.08v18.91c0,1.98,.46,3.15,2.68,3.15,.7,0,1.46,0,1.98-.11v3.62c-1.05,.41-2.62,.52-3.62,.52-3.73,0-5.78-1.46-5.78-6.3v-19.79h-4.14v-4.03Z"/><path class="cls-1" d="M650.79,80.29c0,5.43,.88,10.39,5.43,10.39s5.02-4.14,5.14-5.08h4.67c-.12,.81-.88,9.1-9.86,9.1s-10.16-8-10.16-15.41c0-9.4,3.27-15.35,10.39-15.35,7.94,0,9.86,6.48,9.86,13.95,0,.64-.06,1.75-.11,2.4h-15.35Zm10.68-3.68c0-4.67-.93-8.58-5.13-8.58-5.14,0-5.37,6.54-5.43,8.58h10.56Z"/><path class="cls-1" d="M670.52,74.57c0-4.73,0-8-.06-10.1h4.55c.06,.7,.17,2.04,.17,5.19,1.22-3.51,4.03-5.6,7.82-5.66v5.31c-5.08,.12-7.7,2.98-7.7,8.46v16.4h-4.79v-19.61Z"/></g><g><path class="cls-4" d="M202.45,118.06v9.26c.08,1.52,.1,1.58,.35,1.73,.21,.08,.27,.08,1.33,.16h.19v.59h-4.72v-.59h.19c1.1-.08,1.18-.1,1.39-.18,.2-.18,.22-.26,.31-1.72v-9.28c-.08-1.52-.1-1.57-.35-1.73-.23-.08-.29-.08-1.35-.16h-.19v-.61h3.39l8.57,11.09v-8.59c-.02-.41-.04-.65-.09-1.06-.04-.48-.1-.61-.31-.67-.21-.06-.42-.1-.75-.12l-.56-.04h-.19v-.61h4.68v.61h-.19c-.42,0-1.25,.12-1.37,.18-.21,.12-.21,.16-.31,1.71v11.97h-.71l-9.32-11.94Z"/><path class="cls-4" d="M232.94,117.27c1.23,1.32,1.83,3.06,1.83,5.37s-.58,4.08-1.83,5.42c-1.29,1.4-3.03,2.09-5.28,2.09-2.06,0-3.84-.75-5.09-2.09-1.25-1.34-1.83-3.06-1.83-5.41s.6-4.09,1.83-5.39c1.29-1.38,3.06-2.1,5.2-2.1s3.89,.69,5.18,2.1m-9.96,5.39c0,4.24,1.79,6.85,4.7,6.85,3.08,0,4.84-2.51,4.84-6.87s-1.81-6.82-4.76-6.82-4.78,2.55-4.78,6.83"/><path class="cls-4" d="M245.48,127.32q.06,1.62,.29,1.72c.14,.08,.81,.18,1.14,.18h.19v.59h-5.62v-.59h.19c.41,0,1.23-.12,1.37-.18,.21-.12,.21-.14,.31-1.72v-9.3c0-.6-.1-1.45-.21-1.6-.1-.18-.21-.2-1.47-.28h-.19v-.61h3.59q.6,0,1.85-.04c.27-.02,.52-.02,.83-.02,1.56,0,2.58,.28,3.39,.89,.81,.62,1.25,1.58,1.25,2.72,0,1.92-1.13,3.38-3.12,4.01l2.95,4.21q1.29,1.7,1.45,1.78c.14,.06,.79,.14,1.27,.14h.21v.59h-3.83l-4.12-6.28h-1.75v3.79Zm.75-4.44c1.64,0,2.54-.3,3.21-1.07,.54-.63,.81-1.48,.81-2.52s-.27-1.88-.75-2.39c-.5-.51-1.19-.71-2.56-.71h-1.45v6.69h.75Z"/><path class="cls-4" d="M263.23,116.31l-1.17,.06c-.5,.04-.58,.06-.65,.22-.04,.06-.06,.24-.08,.45l-.02,.93v.2h-1.08v-2.62h12.89v2.62h-1.06v-.2l-.04-.93c-.02-.45-.06-.57-.25-.61-.25-.04-.41-.06-.79-.08l-.83-.04h-2.42v11.01c0,.61,.11,1.44,.21,1.6,.08,.18,.19,.2,1.5,.3h.43v.59h-6.38v-.59h.44c.42,0,1.23-.12,1.37-.18,.2-.12,.2-.14,.31-1.72v-11.01h-2.39Z"/><path class="cls-4" d="M283.82,127.32c0,.61,.1,1.44,.21,1.6,.08,.18,.18,.2,1.49,.3h.19v.59h-5.88v-.59h.19c.42,0,1.23-.12,1.37-.18,.2-.12,.2-.14,.31-1.72v-9.28c0-.58-.1-1.44-.21-1.59-.08-.18-.19-.2-1.47-.3h-.19v-.61h5.88v.61h-.19c-.41,0-1.25,.12-1.39,.18-.21,.12-.21,.14-.31,1.71v3.95h7.17v-3.95c-.08-1.52-.1-1.57-.35-1.73-.23-.08-.29-.08-1.35-.16h-.19v-.61h5.89v.61h-.19c-1.08,.08-1.19,.1-1.37,.18-.2,.18-.22,.26-.31,1.71v9.28c.09,1.52,.11,1.58,.36,1.73,.21,.08,.27,.08,1.33,.16h.19v.59h-5.89v-.59h.19c1.1-.08,1.18-.1,1.39-.18,.21-.18,.23-.26,.31-1.72v-4.5h-7.17v4.5Z"/><path class="cls-4" d="M301.09,129.81v-.59h.19c.41,0,1.25-.12,1.37-.18,.21-.12,.21-.16,.31-1.72v-9.3c0-.6-.1-1.45-.21-1.6-.08-.16-.18-.18-1.47-.28h-.19v-.61h10.27v2.49h-1.15v-.18q-.08-1.33-.14-1.4c-.13-.12-.42-.14-1.71-.14h-3.29v5.71h2.77c.52-.02,.83-.04,.91-.04,.29-.02,.35-.06,.39-.26,.02-.12,.02-.2,.04-.35l.02-.36v-.18h.83v3.16h-.83v-.18c0-.3-.1-.79-.16-.87-.09-.08-.67-.16-1.21-.16h-2.77v4.54c0,.77,.15,1.38,.35,1.5,.19,.1,.67,.16,1.37,.16h1.62q2.08-.08,2.22-.32c.08-.16,.14-.61,.14-1.28v-.18h1.13v2.6h-10.83Z"/><path class="cls-4" d="M322.08,127.32q.06,1.62,.3,1.72c.14,.08,.81,.18,1.14,.18h.19v.59h-5.61v-.59h.19c.42,0,1.22-.12,1.37-.18,.21-.12,.21-.14,.31-1.72v-9.3c0-.6-.1-1.45-.21-1.6-.1-.18-.21-.2-1.47-.28h-.19v-.61h3.6q.6,0,1.85-.04c.27-.02,.52-.02,.83-.02,1.56,0,2.58,.28,3.39,.89,.81,.62,1.25,1.58,1.25,2.72,0,1.92-1.12,3.38-3.12,4.01l2.95,4.21q1.29,1.7,1.46,1.78c.14,.06,.79,.14,1.27,.14h.2v.59h-3.83l-4.11-6.28h-1.75v3.79Zm.75-4.44c1.64,0,2.54-.3,3.21-1.07,.54-.63,.81-1.48,.81-2.52s-.27-1.88-.75-2.39c-.5-.51-1.19-.71-2.56-.71h-1.46v6.69h.75Z"/><path class="cls-4" d="M341.11,118.06v9.26c.09,1.52,.11,1.58,.35,1.73,.21,.08,.27,.08,1.33,.16h.19v.59h-4.72v-.59h.18c1.1-.08,1.19-.1,1.39-.18,.2-.18,.23-.26,.31-1.72v-9.28c-.08-1.52-.11-1.57-.35-1.73-.23-.08-.29-.08-1.35-.16h-.18v-.61h3.39l8.57,11.09v-8.59c-.02-.41-.04-.65-.08-1.06-.04-.48-.1-.61-.31-.67-.21-.06-.42-.1-.75-.12l-.56-.04h-.19v-.61h4.68v.61h-.19c-.42,0-1.25,.12-1.37,.18-.21,.12-.21,.16-.32,1.71v11.97h-.71l-9.32-11.94Z"/><path class="cls-4" d="M376.55,129.81h-5.88v-.59h.19c.42,0,1.23-.12,1.37-.18,.21-.12,.21-.14,.31-1.72v-9.28c0-.58-.1-1.44-.21-1.59-.08-.18-.19-.2-1.47-.3h-.19v-.61h5.88v.61h-.18c-.42,0-1.25,.12-1.39,.18-.21,.12-.21,.14-.31,1.71v9.28c0,.61,.1,1.44,.21,1.6,.08,.18,.18,.2,1.49,.3h.18v.59Z"/><path class="cls-4" d="M382.66,129.81v-.59h.18c.42,0,1.25-.12,1.37-.18,.21-.12,.21-.16,.31-1.74v-9.26c0-.58-.1-1.44-.21-1.59-.08-.18-.19-.2-1.48-.3h-.18v-.61h5.88v.61h-.19c-.41,0-1.25,.12-1.39,.18-.21,.12-.21,.14-.31,1.71v9.26c0,.87,.04,1.26,.14,1.46,.12,.16,.48,.22,1.6,.22h1.56c1.35,0,2.12-.14,2.27-.4,.1-.18,.14-.63,.14-1.44v-.2h1.06v2.86h-10.77Z"/><path class="cls-4" d="M399.47,129.81v-.59h.18c.42,0,1.25-.12,1.37-.18,.21-.12,.21-.16,.31-1.74v-9.26c0-.58-.1-1.44-.21-1.59-.08-.18-.19-.2-1.48-.3h-.18v-.61h5.88v.61h-.19c-.41,0-1.25,.12-1.39,.18-.21,.12-.21,.14-.31,1.71v9.26c0,.87,.04,1.26,.15,1.46,.12,.16,.48,.22,1.6,.22h1.56c1.35,0,2.12-.14,2.27-.4,.1-.18,.14-.63,.14-1.44v-.2h1.06v2.86h-10.77Z"/><path class="cls-4" d="M422.16,129.81h-5.88v-.59h.19c.41,0,1.23-.12,1.37-.18,.21-.12,.21-.14,.31-1.72v-9.28c0-.58-.1-1.44-.21-1.59-.08-.18-.19-.2-1.47-.3h-.19v-.61h5.88v.61h-.18c-.42,0-1.25,.12-1.39,.18-.21,.12-.21,.14-.31,1.71v9.28c0,.61,.1,1.44,.21,1.6,.08,.18,.19,.2,1.5,.3h.18v.59Z"/><path class="cls-4" d="M431.12,118.06v9.26c.08,1.52,.1,1.58,.35,1.73,.21,.08,.27,.08,1.33,.16h.19v.59h-4.72v-.59h.19c1.1-.08,1.18-.1,1.39-.18,.2-.18,.22-.26,.31-1.72v-9.28c-.08-1.52-.1-1.57-.35-1.73-.23-.08-.29-.08-1.35-.16h-.19v-.61h3.39l8.57,11.09v-8.59c-.02-.41-.04-.65-.09-1.06-.04-.48-.1-.61-.31-.67-.21-.06-.42-.1-.75-.12l-.56-.04h-.19v-.61h4.68v.61h-.19c-.41,0-1.24,.12-1.37,.18-.21,.12-.21,.16-.31,1.71v11.97h-.71l-9.32-11.94Z"/><path class="cls-4" d="M461.61,117.27c1.23,1.32,1.83,3.06,1.83,5.37s-.58,4.08-1.83,5.42c-1.29,1.4-3.03,2.09-5.28,2.09-2.06,0-3.85-.75-5.09-2.09-1.25-1.34-1.83-3.06-1.83-5.41s.6-4.09,1.83-5.39c1.29-1.38,3.05-2.1,5.2-2.1s3.89,.69,5.18,2.1m-9.96,5.39c0,4.24,1.78,6.85,4.7,6.85,3.07,0,4.84-2.51,4.84-6.87s-1.81-6.82-4.76-6.82-4.78,2.55-4.78,6.83"/><path class="cls-4" d="M476.05,129.81h-5.89v-.59h.19c.42,0,1.23-.12,1.37-.18,.21-.12,.21-.14,.31-1.72v-9.28c0-.58-.1-1.44-.2-1.59-.08-.18-.19-.2-1.47-.3h-.19v-.61h5.89v.61h-.19c-.42,0-1.25,.12-1.4,.18-.2,.12-.2,.14-.31,1.71v9.28c0,.61,.11,1.44,.2,1.6,.09,.18,.19,.2,1.5,.3h.19v.59Z"/><path class="cls-4" d="M482.92,126.77h1.08v.18q.08,1.46,.54,1.78c.71,.47,1.62,.73,2.54,.73,1.79,0,2.85-1.03,2.85-2.74,0-1.42-.52-2.09-2.4-3.1l-1.06-.57c-2.47-1.35-3.43-2.47-3.43-4.05,0-1.05,.5-2.09,1.35-2.8,.81-.69,1.77-1.01,3.02-1.01,1.16,0,2.16,.16,3.78,.62v2.54h-1.15v-.18q-.08-1.6-.45-1.84c-.44-.29-1.31-.49-2.1-.49-1.44,0-2.42,.99-2.42,2.46,0,1.27,.52,1.98,2.12,2.84l1.06,.58c1.67,.89,2.45,1.42,2.93,1.99,.58,.67,.85,1.42,.85,2.31,0,2.36-2.1,4.14-4.88,4.14-1.37,0-3.25-.27-4.24-.65v-2.74Z"/><path class="cls-4" d="M509.94,115.53h5.93v.61h-.18c-.42,0-1.25,.12-1.4,.18-.21,.12-.21,.16-.31,1.71v6.1c0,2.78,.04,3.1,.54,3.91,.58,.91,1.77,1.48,3.14,1.48s2.52-.49,3.21-1.32c.6-.77,.73-1.34,.73-3.63v-6.54c0-.58-.1-1.44-.21-1.59-.08-.18-.18-.2-1.48-.3h-.18v-.61h4.8v.61h-.19c-1.08,.08-1.16,.1-1.37,.18-.21,.18-.23,.26-.31,1.71v5.99c0,2.44-.16,3.24-.9,4.28-.87,1.24-2.31,1.86-4.38,1.86-1.79,0-3.21-.47-4.18-1.4-.96-.91-1.37-2.21-1.37-4.28v-6.44c0-.58-.1-1.44-.21-1.59-.08-.18-.19-.2-1.47-.3h-.19v-.61Z"/><path class="cls-4" d="M533.24,118.06v9.26c.08,1.52,.1,1.58,.35,1.73,.21,.08,.27,.08,1.33,.16h.18v.59h-4.72v-.59h.19c1.1-.08,1.19-.1,1.39-.18,.2-.18,.23-.26,.32-1.72v-9.28c-.09-1.52-.11-1.57-.36-1.73-.23-.08-.29-.08-1.35-.16h-.19v-.61h3.39l8.56,11.09v-8.59c-.02-.41-.04-.65-.08-1.06-.04-.48-.1-.61-.31-.67-.21-.06-.42-.1-.75-.12l-.56-.04h-.19v-.61h4.68v.61h-.19c-.42,0-1.25,.12-1.37,.18-.21,.12-.21,.16-.31,1.71v11.97h-.71l-9.31-11.94Z"/><path class="cls-4" d="M557.12,129.81h-5.89v-.59h.19c.42,0,1.23-.12,1.37-.18,.21-.12,.21-.14,.31-1.72v-9.28c0-.58-.1-1.44-.21-1.59-.08-.18-.19-.2-1.47-.3h-.19v-.61h5.89v.61h-.19c-.42,0-1.25,.12-1.39,.18-.21,.12-.21,.14-.31,1.71v9.28c0,.61,.1,1.44,.21,1.6,.09,.18,.19,.2,1.5,.3h.19v.59Z"/><path class="cls-4" d="M565.57,118.08q-.79-1.66-.9-1.74c-.14-.12-.52-.2-.85-.2h-.2v-.61h5.45v.59h-.21c-1.14,0-1.58,.12-1.58,.39q0,.14,.62,1.56l3.89,8.98,3.63-8.98c.08-.22,.17-.4,.21-.49,.24-.56,.33-.83,.33-1.03,0-.35-.3-.43-1.48-.43h-.23v-.59h3.89v.61h-.23c-.29,0-.69,.08-.81,.18q-.12,.1-.85,1.76l-4.84,11.9h-.69l-5.16-11.9Z"/><path class="cls-4" d="M584.64,129.81v-.59h.19c.42,0,1.25-.12,1.37-.18,.21-.12,.21-.16,.31-1.72v-9.3c0-.6-.1-1.45-.2-1.6-.08-.16-.19-.18-1.48-.28h-.19v-.61h10.27v2.49h-1.14v-.18q-.08-1.33-.14-1.4c-.12-.12-.41-.14-1.71-.14h-3.29v5.71h2.77c.52-.02,.83-.04,.91-.04,.29-.02,.36-.06,.4-.26,.02-.12,.02-.2,.04-.35l.02-.36v-.18h.83v3.16h-.83v-.18c0-.3-.1-.79-.17-.87-.08-.08-.67-.16-1.2-.16h-2.77v4.54c0,.77,.15,1.38,.36,1.5,.18,.1,.67,.16,1.37,.16h1.62q2.08-.08,2.22-.32c.08-.16,.15-.61,.15-1.28v-.18h1.12v2.6h-10.83Z"/><path class="cls-4" d="M605.63,127.32q.06,1.62,.29,1.72c.15,.08,.81,.18,1.14,.18h.19v.59h-5.61v-.59h.19c.42,0,1.23-.12,1.37-.18,.21-.12,.21-.14,.31-1.72v-9.3c0-.6-.1-1.45-.21-1.6-.1-.18-.2-.2-1.47-.28h-.19v-.61h3.6q.6,0,1.85-.04c.27-.02,.52-.02,.83-.02,1.56,0,2.58,.28,3.39,.89,.81,.62,1.25,1.58,1.25,2.72,0,1.92-1.12,3.38-3.12,4.01l2.95,4.21q1.29,1.7,1.45,1.78c.14,.06,.79,.14,1.27,.14h.21v.59h-3.83l-4.11-6.28h-1.75v3.79Zm.75-4.44c1.64,0,2.54-.3,3.21-1.07,.54-.63,.81-1.48,.81-2.52s-.26-1.88-.75-2.39c-.5-.51-1.18-.71-2.55-.71h-1.46v6.69h.75Z"/><path class="cls-4" d="M622.19,126.77h1.09v.18q.08,1.46,.54,1.78c.71,.47,1.63,.73,2.54,.73,1.79,0,2.85-1.03,2.85-2.74,0-1.42-.52-2.09-2.4-3.1l-1.06-.57c-2.47-1.35-3.43-2.47-3.43-4.05,0-1.05,.5-2.09,1.35-2.8,.81-.69,1.77-1.01,3.01-1.01,1.16,0,2.16,.16,3.78,.62v2.54h-1.14v-.18q-.08-1.6-.46-1.84c-.43-.29-1.31-.49-2.1-.49-1.44,0-2.42,.99-2.42,2.46,0,1.27,.52,1.98,2.12,2.84l1.06,.58c1.67,.89,2.45,1.42,2.93,1.99,.58,.67,.86,1.42,.86,2.31,0,2.36-2.1,4.14-4.89,4.14-1.37,0-3.24-.27-4.24-.65v-2.74Z"/><path class="cls-4" d="M643.81,129.81h-5.89v-.59h.18c.42,0,1.23-.12,1.37-.18,.21-.12,.21-.14,.31-1.72v-9.28c0-.58-.1-1.44-.21-1.59-.08-.18-.19-.2-1.48-.3h-.18v-.61h5.89v.61h-.19c-.42,0-1.25,.12-1.39,.18-.21,.12-.21,.14-.31,1.71v9.28c0,.61,.1,1.44,.21,1.6,.09,.18,.19,.2,1.5,.3h.19v.59Z"/><path class="cls-4" d="M653.51,116.31l-1.17,.06c-.5,.04-.58,.06-.65,.22-.04,.06-.06,.24-.08,.45l-.02,.93v.2h-1.08v-2.62h12.89v2.62h-1.07v-.2l-.04-.93c-.02-.45-.06-.57-.24-.61-.25-.04-.42-.06-.79-.08l-.83-.04h-2.42v11.01c0,.61,.1,1.44,.21,1.6,.08,.18,.18,.2,1.5,.3h.43v.59h-6.38v-.59h.44c.41,0,1.22-.12,1.37-.18,.2-.12,.2-.14,.31-1.72v-11.01h-2.39Z"/><path class="cls-4" d="M672.36,118.1c-.73-1.14-1.14-1.74-1.21-1.77-.14-.12-.46-.18-1.04-.18h-.2v-.61h5.82v.59h-.19c-1.29,.06-1.48,.1-1.48,.34,0,.05,.29,.61,.83,1.63l2.81,4.5,2.95-4.48c.48-.75,.85-1.48,.85-1.69s-.12-.24-1.39-.3h-.19v-.59h4.07v.61h-.2c-.85,.06-.85,.08-1.02,.12-.04,0-.27,.22-.44,.47l-.89,1.36-3.54,5.39v3.83c.11,1.52,.11,1.57,.36,1.73,.22,.08,.29,.08,1.35,.16h.18v.59h-5.88v-.59h.18c1.08-.08,1.18-.1,1.37-.18,.21-.18,.24-.25,.31-1.71v-3.83l-3.43-5.39Z"/></g></g></g><g><g><path class="cls-1" d="M148.3,107.33c0,23.95,.7,32.31,7.52,32.31s7.38-8.22,7.38-32.03-.56-29.66-7.38-29.66c-6.27,0-7.52,6.54-7.52,29.38Z"/><path class="cls-1" d="M155.68,155.79c-16.57,0-28.41-8.77-28.41-48.18s14.2-45.95,28.69-45.95c4.17,0,8.2,.53,11.84,2.11-13.53-17.09-34.44-28.08-57.94-28.08-40.79,0-73.86,33.07-73.86,73.86s33.07,73.86,73.86,73.86c24.78,0,46.69-12.21,60.09-30.94-4.12,2.44-8.96,3.31-14.27,3.31Zm-34.95-1.39h-21.17V84.91c-2.51-.14-6.41-.56-8.49-.84v-14.9c6.68-.56,12.39-3.48,15.18-6.54h14.48v91.77Z"/></g><g><path class="cls-2" d="M94.57,151.48h-6.24c-.21,0-.37,.03-.57,.1l-10.87,4.47v-3.53c2.77-.99,6.19-2.22,8.12-2.74-2.17-.65-5.49-1.85-8.12-2.74v-3.34l10.89,4.49c.13,.05,.34,.1,.6,.1h6.19v3.19Z"/><path class="cls-2" d="M86.71,133.9v5.7h5.15v-6.38l2.72,.39v9.09h-17.69v-9.07h2.77v5.96h4.31v-5.7h2.74Z"/><path class="cls-2" d="M90.13,127.98l4.44,.89v3.16l-17.69-4.1v-4.1l17.69-4.13v3.32l-4.44,.86v4.1Zm-2.74-3.53c-3.4,.65-5.88,1.18-7.55,1.46v.08c1.62,.21,4.28,.78,7.55,1.44v-2.98Z"/><path class="cls-2" d="M87.02,115.02h7.55v3.13h-17.69v-5.41c0-3.21,1.7-5.04,4.83-5.04,2.56,0,3.66,1.38,4.02,2.3,.65-1.36,1.8-2.01,4.42-2.01h.71c2.01,0,2.77-.1,3.71-.24v3.06c-.81,.26-2.22,.29-3.74,.29h-.63c-2.38,0-3.19,.55-3.19,2.56v1.36Zm-2.56,0v-1.49c0-1.91-.81-2.66-2.59-2.66-1.54,0-2.43,.73-2.43,2.35v1.8h5.02Z"/><path class="cls-2" d="M89.63,102.9c1.46-.16,2.74-.76,2.74-2.38s-.97-2.12-2.3-2.12c-1.44,0-2.3,.71-3.34,2.93-1.44,3.03-2.72,4.23-5.35,4.23-2.82,0-4.75-1.83-4.75-5.02,0-4,2.69-4.96,4.99-5.02v3.11c-1.02,.08-2.51,.34-2.51,1.96,0,1.25,.81,1.8,2.01,1.8,1.28,0,1.88-.57,2.85-2.64,1.46-3.16,2.87-4.6,5.83-4.6,2.8,0,5.09,1.72,5.09,5.46,0,4.08-2.61,5.3-5.25,5.41v-3.13Z"/></g></g></g></svg>
